<svg id="Groupe_255" data-name="Groupe 255" xmlns="http://www.w3.org/2000/svg" xmlns:xlink="http://www.w3.org/1999/xlink" width="547.888" height="719.047" viewBox="0 0 547.888 719.047">
  <defs>
    <radialGradient id="radial-gradient" cx="0.5" cy="0.5" r="3.578" gradientTransform="translate(0.45 0.04) scale(0.099 0.89)" gradientUnits="objectBoundingBox">
      <stop offset="0" stop-opacity="0.302"/>
      <stop offset="1" stop-color="#161615" stop-opacity="0.2"/>
    </radialGradient>
  </defs>
  <g id="Calque_8" data-name="Calque 8" transform="translate(3.14 664.891)">
    <ellipse id="Ellipse_46" data-name="Ellipse 46" cx="272.374" cy="27.078" rx="272.374" ry="27.078" opacity="0.4" fill="url(#radial-gradient)"/>
  </g>
  <g id="Calque_7" data-name="Calque 7">
    <g id="Groupe_253" data-name="Groupe 253" transform="translate(0 146.493)">
      <path id="Tracé_131" data-name="Tracé 131" d="M1272.288-915.112s5.941,53.469,5.941,71.291,106.58,28.517,100.815,4.752-47.3-42.106-53.265-31.151,21.411-136.38,0-174.4-23.528-131.464.189-122.815c25.113,10.6,7.054,61.762,58.595,70.594,21.3,3.65,106.5-6,93.354-26.2s-20.276-49.9-35.722-33.269-58.574,27.327-63.151,0-10.516-123.57-46.159-108.123c0,0,89.112-96.241-8.318-105.746s-59.408,91.489-52.279,97.428c0,0-28.517-5.939-32.081,13.07S1272.288-915.112,1272.288-915.112Z" transform="translate(-1239.957 1370.808)" fill="rgba(255,255,255,0.5)"/>
      <g id="FOND" transform="translate(184.824 204.649)">
        <g id="Calque_2" data-name="Calque 2" transform="translate(0 0)">
          <rect id="rect_FOND" data-name="rect FOND" width="57.751" height="26.671" rx="1.307" transform="translate(0 34.801) rotate(-37.056)" fill="#161615"/>
        </g>
      </g>
      <g id="FOND-2" data-name="FOND" transform="translate(187.915 207.709)">
        <g id="Calque_2-2" data-name="Calque 2">
          <path id="rect_FOND-2" data-name="rect FOND" d="M1374.416-1269.995l11.435,15.143a2.5,2.5,0,0,1-.591,3.488l-39.521,29.843a2.5,2.5,0,0,1-3.517-.387l-11.433-15.143a2.5,2.5,0,0,1,.589-3.487l39.524-29.843A2.5,2.5,0,0,1,1374.416-1269.995Z" transform="translate(-1330.321 1270.926)" fill="#fff"/>
        </g>
      </g>
    </g>
    <g id="Groupe_254" data-name="Groupe 254" transform="translate(223.095)">
      <path id="Tracé_132" data-name="Tracé 132" d="M1614.5-863.174s-7.538,67.826-7.538,90.435-135.2,36.175-127.891,6.028,60-53.415,67.57-39.519-27.161-173,0-221.235,29.849-166.77-.237-155.8c-31.859,13.45-8.951,78.349-74.333,89.551-27.019,4.631-135.107-7.611-118.427-33.233s25.724-63.305,45.317-42.2,74.306,34.666,80.11,0,13.34-156.755,58.557-137.162c0,0-113.043-122.087,10.551-134.144s75.363,116.059,66.321,123.594c0,0,36.173-7.536,40.694,16.58S1614.5-863.174,1614.5-863.174Z" transform="translate(-1342.2 1441.254)" fill="#e74e00"/>
      <g id="FOND-3" data-name="FOND" transform="translate(0 259.609)">
        <g id="Calque_2-3" data-name="Calque 2" transform="translate(0 0)">
          <rect id="rect_FOND-3" data-name="rect FOND" width="33.834" height="73.261" rx="1.658" transform="translate(0 27.001) rotate(-52.944)" fill="#161615"/>
        </g>
      </g>
      <g id="FOND-4" data-name="FOND" transform="translate(3.896 263.492)">
        <g id="Calque_2-4" data-name="Calque 2">
          <path id="rect_FOND-4" data-name="rect FOND" d="M1368.669-1313.857,1418.806-1276a3.176,3.176,0,0,1,.749,4.425l-14.5,19.209a3.174,3.174,0,0,1-4.461.491l-50.137-37.856a3.177,3.177,0,0,1-.747-4.425l14.5-19.209A3.174,3.174,0,0,1,1368.669-1313.857Z" transform="translate(-1349.111 1314.547)" fill="#fff"/>
        </g>
      </g>
    </g>
  </g>
</svg>
