<svg xmlns="http://www.w3.org/2000/svg" width="349.951" height="401.076" viewBox="0 0 349.951 401.076">
  <g id="Engrenages" transform="translate(-1319.049 -1025)">
    <path id="Tracé_93" data-name="Tracé 93" d="M-187.8-1270.353l14.441-33.148-16.237-7.074a63.419,63.419,0,0,0,.238-13.437l16.492-6.482-13.232-33.665-16.492,6.482a62.977,62.977,0,0,0-9.308-9.672l7.068-16.221-33.163-14.449-7.068,16.222a62.821,62.821,0,0,0-13.421-.232l-6.482-16.492-33.665,13.231,6.482,16.492a61.5,61.5,0,0,0-9.678,9.322l-16.237-7.075L-332.5-1333.4l16.237,7.075a62.374,62.374,0,0,0-.253,13.43l-16.471,6.474,13.232,33.665,16.471-6.473a63.075,63.075,0,0,0,9.323,9.677l-7.068,16.222,33.163,14.449,7.068-16.222a63.433,63.433,0,0,0,13.436.238l6.473,16.471,33.665-13.232-6.473-16.47a64.428,64.428,0,0,0,9.662-9.329Zm-58.512-31.274c-21.676,8.945-35.2-25.448-13.23-33.664C-237.875-1344.207-224.34-1309.817-246.31-1301.626Z" transform="translate(1687.863 2664.472)" fill="#e74e00" opacity="0.2"/>
    <path id="Tracé_94" data-name="Tracé 94" d="M-294.612-1293.674l5.957-13.672-6.7-2.917a26.147,26.147,0,0,0,.1-5.542l6.8-2.673-5.457-13.883-6.8,2.673a25.99,25.99,0,0,0-3.839-3.989l2.914-6.69-13.676-5.959-2.914,6.69a25.976,25.976,0,0,0-5.535-.1l-2.674-6.8-13.883,5.457,2.673,6.8a25.385,25.385,0,0,0-3.991,3.845l-6.7-2.917-5.957,13.671,6.7,2.918a25.692,25.692,0,0,0-.105,5.539l-6.792,2.669,5.455,13.885,6.793-2.671a25.966,25.966,0,0,0,3.846,3.992l-2.916,6.69,13.678,5.96,2.914-6.692a26.119,26.119,0,0,0,5.542.1l2.669,6.794,13.885-5.457-2.671-6.793a26.513,26.513,0,0,0,3.986-3.847Zm-24.13-12.9c-8.939,3.689-14.516-10.494-5.457-13.883C-315.265-1324.133-309.682-1309.95-318.743-1306.573Z" transform="translate(1673.539 2699.108)" fill="#e74e00" opacity="0.4"/>
    <path id="Tracé_222" data-name="Tracé 222" d="M242.638,214.191l24.134-55.4-27.135-11.823a105.984,105.984,0,0,0,.4-22.455L267.6,113.685l-22.112-56.26L217.922,68.258a105.243,105.243,0,0,0-15.554-16.164L214.18,24.986,158.759.838l-11.812,27.11a104.963,104.963,0,0,0-22.43-.387L113.685,0,57.426,22.112,68.258,49.674A102.784,102.784,0,0,0,52.085,65.253L24.95,53.43.813,108.826l27.135,11.823a104.232,104.232,0,0,0-.423,22.443L0,153.911,22.112,210.17l27.525-10.818a105.406,105.406,0,0,0,15.58,16.173L53.4,242.635l55.421,24.147,11.812-27.11a106,106,0,0,0,22.455.4L153.91,267.6l56.259-22.112-10.818-27.525A107.681,107.681,0,0,0,215.5,202.367Zm-97.782-52.264c-36.224,14.948-58.818-42.528-22.109-56.259C158.951,90.768,181.57,148.238,144.855,161.927Z" transform="matrix(-0.208, -0.978, 0.978, -0.208, 1407.004, 1342.384)" fill="#e74e00" opacity="0.2"/>
    <path id="Tracé_223" data-name="Tracé 223" d="M100.066,88.337,110.02,65.49,98.829,60.615a43.694,43.694,0,0,0,.164-9.261l11.367-4.467-9.119-23.2L89.874,28.152a43.425,43.425,0,0,0-6.415-6.667l4.87-11.18L65.473.348,60.6,11.528a43.409,43.409,0,0,0-9.25-.161L46.883,0l-23.2,9.12,4.466,11.366a42.423,42.423,0,0,0-6.669,6.427L10.289,22.037.334,44.884,11.525,49.76a42.937,42.937,0,0,0-.175,9.256L0,63.477l9.117,23.2,11.353-4.464A43.386,43.386,0,0,0,26.9,88.889l-4.873,11.18,22.858,9.96,4.87-11.183a43.646,43.646,0,0,0,9.261.164l4.461,11.353,23.2-9.12L82.214,89.891a44.31,44.31,0,0,0,6.661-6.43ZM59.74,66.782C44.8,72.947,35.481,49.245,50.62,43.581,65.551,37.436,74.882,61.138,59.74,66.782Z" transform="matrix(-0.208, -0.978, 0.978, -0.208, 1561.049, 1370.85)" fill="#e74e00" opacity="0.4"/>
  </g>
</svg>
