<svg xmlns="http://www.w3.org/2000/svg" width="127.7" height="117.206" viewBox="0 0 127.7 117.206">
  <g id="Fleche_retour" data-name="Fleche retour" transform="translate(4896.056 2450.325) rotate(-90)" stroke-miterlimit="10">
    <path d="M 2391.7958984375 -4769.60546875 C 2388.456787109375 -4769.60546875 2385.3173828125 -4770.90576171875 2382.9560546875 -4773.26708984375 C 2380.5947265625 -4775.62890625 2379.294189453125 -4778.76806640625 2379.294189453125 -4782.107421875 L 2379.294189453125 -4843.39892578125 L 2379.294189453125 -4846.416015625 L 2377.160400390625 -4844.28271484375 L 2355.692138671875 -4822.8212890625 C 2353.335205078125 -4820.4755859375 2350.203369140625 -4819.18212890625 2346.875244140625 -4819.18212890625 C 2343.52392578125 -4819.18212890625 2340.375244140625 -4820.49072265625 2338.009521484375 -4822.8662109375 C 2335.662109375 -4825.22509765625 2334.369140625 -4828.3564453125 2334.369140625 -4831.6845703125 C 2334.369140625 -4835.01220703125 2335.662109375 -4838.14453125 2338.010009765625 -4840.50390625 L 2391.79345703125 -4894.28857421875 C 2398.07373046875 -4888.02001953125 2408.113037109375 -4877.974609375 2417.836669921875 -4868.2451171875 C 2428.280029296875 -4857.794921875 2439.0791015625 -4846.98876953125 2445.573974609375 -4840.50927734375 C 2447.889404296875 -4838.1064453125 2449.132080078125 -4834.94677734375 2449.073486328125 -4831.611328125 C 2449.0146484375 -4828.27197265625 2447.65869140625 -4825.15625 2445.2548828125 -4822.8369140625 C 2442.911376953125 -4820.57421875 2439.827392578125 -4819.328125 2436.57080078125 -4819.328125 C 2433.31787109375 -4819.328125 2430.23681640625 -4820.57177734375 2427.894287109375 -4822.82958984375 L 2406.43505859375 -4844.28857421875 L 2404.30126953125 -4846.42236328125 L 2404.30126953125 -4843.40478515625 L 2404.30126953125 -4782.107421875 C 2404.30126953125 -4778.76806640625 2403.00048828125 -4775.62890625 2400.638671875 -4773.267578125 C 2398.27685546875 -4770.90576171875 2395.13623046875 -4769.60546875 2391.7958984375 -4769.60546875 Z" stroke="none"/>
    <path d="M 2391.794189453125 -4892.52197265625 L 2338.89599609375 -4839.62255859375 C 2336.782958984375 -4837.49853515625 2335.619140625 -4834.67919921875 2335.619140625 -4831.6845703125 C 2335.619140625 -4828.689453125 2336.78271484375 -4825.87109375 2338.895263671875 -4823.74853515625 C 2341.024658203125 -4821.60986328125 2343.858642578125 -4820.43212890625 2346.875244140625 -4820.43212890625 C 2349.870361328125 -4820.43212890625 2352.689208984375 -4821.59619140625 2354.812255859375 -4823.70947265625 L 2354.812255859375 -4823.70947265625 L 2376.276611328125 -4845.1669921875 L 2380.544189453125 -4849.43310546875 L 2380.544189453125 -4843.39892578125 L 2380.544189453125 -4782.107421875 C 2380.544189453125 -4779.10205078125 2381.714599609375 -4776.2763671875 2383.83984375 -4774.1513671875 C 2385.965087890625 -4772.02587890625 2388.79052734375 -4770.85546875 2391.7958984375 -4770.85546875 C 2394.802490234375 -4770.85546875 2397.629150390625 -4772.02587890625 2399.7548828125 -4774.1513671875 C 2401.880615234375 -4776.2763671875 2403.05126953125 -4779.10205078125 2403.05126953125 -4782.107421875 L 2403.05126953125 -4843.40478515625 L 2403.05126953125 -4849.4404296875 L 2407.319091796875 -4845.17236328125 L 2428.769287109375 -4823.72216796875 C 2430.876708984375 -4821.69482421875 2433.646484375 -4820.57861328125 2436.57080078125 -4820.57861328125 C 2439.501708984375 -4820.57861328125 2442.27734375 -4821.69970703125 2444.386962890625 -4823.73681640625 C 2446.55029296875 -4825.82373046875 2447.770751953125 -4828.62841796875 2447.82373046875 -4831.63330078125 C 2447.87646484375 -4834.6318359375 2446.7607421875 -4837.47216796875 2444.681396484375 -4839.6337890625 C 2438.185791015625 -4846.11474609375 2427.393798828125 -4856.9130859375 2416.95703125 -4867.35693359375 C 2407.67626953125 -4876.6435546875 2398.107666015625 -4886.2177734375 2391.794189453125 -4892.52197265625 M 2391.79248046875 -4896.0556640625 C 2404.2841796875 -4883.5927734375 2433.585693359375 -4854.2353515625 2446.465087890625 -4841.3857421875 C 2451.742919921875 -4835.9189453125 2451.58984375 -4827.2119140625 2446.122802734375 -4821.9375 C 2443.4580078125 -4819.36474609375 2440.014404296875 -4818.07861328125 2436.57080078125 -4818.07861328125 C 2433.127197265625 -4818.07861328125 2429.68359375 -4819.36474609375 2427.0185546875 -4821.9375 L 2405.55126953125 -4843.40478515625 L 2405.55126953125 -4782.107421875 C 2405.55126953125 -4774.5126953125 2399.39306640625 -4768.35546875 2391.7958984375 -4768.35546875 C 2384.201416015625 -4768.35546875 2378.044189453125 -4774.5126953125 2378.044189453125 -4782.107421875 L 2378.044189453125 -4843.39892578125 L 2356.575927734375 -4821.9375 C 2353.89306640625 -4819.26708984375 2350.383544921875 -4817.93212890625 2346.875244140625 -4817.93212890625 C 2343.34375 -4817.93212890625 2339.8134765625 -4819.283203125 2337.123779296875 -4821.984375 C 2331.7841796875 -4827.34912109375 2331.7841796875 -4836.01904296875 2337.123779296875 -4841.3857421875 L 2391.79248046875 -4896.0556640625 Z" stroke="none" fill="#fff"/>
  </g>
</svg>
