<svg xmlns="http://www.w3.org/2000/svg" width="390.823" height="523.063" viewBox="0 0 390.823 523.063">
  <g id="Image_pt1" data-name="Image pt1" transform="translate(-73.607 -289.637)">
    <g id="Groupe_87" data-name="Groupe 87" transform="translate(73.607 289.637)">
      <g id="Groupe_84" data-name="Groupe 84" transform="translate(0 0)">
        <g id="Groupe_83" data-name="Groupe 83" transform="translate(0 0)">
          <g id="FOND" transform="translate(0)">
            <g id="Calque_2" data-name="Calque 2">
              <rect id="rect_FOND" data-name="rect FOND" width="474.981" height="219.357" rx="13.413" transform="matrix(0.399, -0.917, 0.917, 0.399, 0, 435.444)" fill="#e6e6e6"/>
            </g>
          </g>
          <g id="FOND-2" data-name="FOND" transform="translate(4.329 5.641)">
            <g id="Calque_2-2" data-name="Calque 2" transform="translate(0 0)">
              <rect id="rect_FOND-2" data-name="rect FOND" width="464.561" height="214.545" rx="13.119" transform="matrix(0.399, -0.917, 0.917, 0.399, 0, 425.891)" fill="#fff"/>
            </g>
            <g id="Calque_2-3" data-name="Calque 2" transform="translate(0 0)">
              <rect id="rect_FOND-3" data-name="rect FOND" width="464.561" height="214.545" rx="13.119" transform="matrix(0.399, -0.917, 0.917, 0.399, 0, 425.891)" fill="#fff"/>
            </g>
          </g>
          <path id="Tracé_93" data-name="Tracé 93" d="M-187.8-1270.353l14.441-33.148-16.237-7.074a63.419,63.419,0,0,0,.238-13.437l16.492-6.482-13.232-33.665-16.492,6.482a62.977,62.977,0,0,0-9.308-9.672l7.068-16.221-33.163-14.449-7.068,16.222a62.821,62.821,0,0,0-13.421-.232l-6.482-16.492-33.665,13.231,6.482,16.492a61.5,61.5,0,0,0-9.678,9.322l-16.237-7.075L-332.5-1333.4l16.237,7.075a62.374,62.374,0,0,0-.253,13.43l-16.471,6.474,13.232,33.665,16.471-6.473a63.075,63.075,0,0,0,9.323,9.677l-7.068,16.222,33.163,14.449,7.068-16.222a63.433,63.433,0,0,0,13.436.238l6.473,16.471,33.665-13.232-6.473-16.47a64.428,64.428,0,0,0,9.662-9.329Zm-58.512-31.274c-21.676,8.945-35.2-25.448-13.23-33.664C-237.875-1344.207-224.34-1309.817-246.31-1301.626Z" transform="translate(470.588 1544.559)" fill="#e74e00" stroke="#161615" stroke-miterlimit="10" stroke-width="1" opacity="0.2"/>
          <path id="Tracé_94" data-name="Tracé 94" d="M-294.612-1293.674l5.957-13.672-6.7-2.917a26.147,26.147,0,0,0,.1-5.542l6.8-2.673-5.457-13.883-6.8,2.673a25.99,25.99,0,0,0-3.839-3.989l2.914-6.69-13.676-5.959-2.914,6.69a25.976,25.976,0,0,0-5.535-.1l-2.674-6.8-13.883,5.457,2.673,6.8a25.385,25.385,0,0,0-3.991,3.845l-6.7-2.917-5.957,13.671,6.7,2.918a25.692,25.692,0,0,0-.105,5.539l-6.792,2.669,5.455,13.885,6.793-2.671a25.966,25.966,0,0,0,3.846,3.992l-2.916,6.69,13.678,5.96,2.914-6.692a26.119,26.119,0,0,0,5.542.1l2.669,6.794,13.885-5.457-2.671-6.793a26.513,26.513,0,0,0,3.986-3.847Zm-24.13-12.9c-8.939,3.689-14.516-10.494-5.457-13.883C-315.265-1324.133-309.682-1309.95-318.743-1306.573Z" transform="translate(456.263 1579.195)" fill="#e74e00" stroke="#161615" stroke-miterlimit="10" stroke-width="1" opacity="0.4"/>
        </g>
      </g>
    </g>
  </g>
</svg>
