<svg xmlns="http://www.w3.org/2000/svg" xmlns:xlink="http://www.w3.org/1999/xlink" width="314.747" height="584.532" viewBox="0 0 314.747 584.532">
  <defs>
    <radialGradient id="radial-gradient" cx="0.5" cy="0.5" r="3.927" gradientTransform="translate(0.455 0.067) scale(0.091 0.865)" gradientUnits="objectBoundingBox">
      <stop offset="0" stop-opacity="0.302"/>
      <stop offset="1" stop-color="#161615" stop-opacity="0.2"/>
    </radialGradient>
    <clipPath id="clip-path">
      <rect id="Rectangle_41" data-name="Rectangle 41" width="175.421" height="79.257" fill="none"/>
    </clipPath>
    <clipPath id="clip-path-2">
      <rect id="Rectangle_42" data-name="Rectangle 42" width="167.681" height="75.811" fill="none"/>
    </clipPath>
  </defs>
  <g id="Image_pt2" data-name="Image pt2" transform="translate(-164.446 -0.124)">
    <g id="Groupe_252" data-name="Groupe 252" transform="translate(164.446 0.124)">
      <g id="FOND" transform="translate(17.816 568.641)">
        <g id="Calque_2" data-name="Calque 2" transform="translate(0 0)">
          <path id="rect_FOND" data-name="rect FOND" d="M390.32-1053.52l8.3,13.021c-.762,3.048-2.926,2.692-9.131,2.692H232.783c-6.2,0-9.332.012-9.712-1.869l9.461-14.009Z" transform="translate(-223.071 1053.685)" fill="url(#radial-gradient)"/>
        </g>
      </g>
      <g id="FOND-2" data-name="FOND" transform="translate(17.821 469.338)">
        <g id="Groupe_92" data-name="Groupe 92" transform="translate(0 0)" style="isolation: isolate">
          <g id="Groupe_91" data-name="Groupe 91" clip-path="url(#clip-path)">
            <g id="Groupe_90" data-name="Groupe 90" transform="translate(-0.001 0)">
              <g id="Groupe_89" data-name="Groupe 89">
                <g id="Groupe_88" data-name="Groupe 88">
                  <path id="Tracé_95" data-name="Tracé 95" d="M242.019-1134.145c-3.711,0-7.006,2.028-7.705,4.926l-11.108,46.255c-.789,3.267,2.033,6.4,6.3,7l148.732,20.975a10.255,10.255,0,0,0,1.419.1c3.72,0,7.031-2.03,7.722-4.932l11.119-46.246c.777-3.268-2.044-6.408-6.309-7.011l-148.732-20.966a10.116,10.116,0,0,0-1.437-.1" transform="translate(-223.074 1134.145)" fill="#161615"/>
                </g>
              </g>
            </g>
          </g>
        </g>
      </g>
      <g id="FOND-3" data-name="FOND" transform="translate(21.717 471.054)">
        <g id="Groupe_99" data-name="Groupe 99" style="isolation: isolate">
          <g id="Groupe_98" data-name="Groupe 98" clip-path="url(#clip-path-2)">
            <g id="Groupe_97" data-name="Groupe 97" transform="translate(-0.126 0)">
              <g id="Groupe_94" data-name="Groupe 94">
                <g id="Groupe_93" data-name="Groupe 93">
                  <path id="Tracé_96" data-name="Tracé 96" d="M319.841-1098.485a33.937,33.937,0,0,0-7.611,1.357c2.444.732,4.6,1.2,4.6,1.2a91.967,91.967,0,0,1-9.788.674h-.4c.455.417,9.575,5.377,9.575,5.377s-.995-.043-2.423-.043h-.365a13.357,13.357,0,0,0,4.343,2.067,9.156,9.156,0,0,0,1.59.139c3.222,0,6.129-1.7,6.875-4.206.866-2.919-1.511-5.82-5.31-6.485a6.3,6.3,0,0,0-1.086-.081m-41.438-1.743a228.394,228.394,0,0,0,24.43-1.69s-5.376-1.157-11.5-2.986c6.577-1.772,14.015-3.408,19.075-3.408a15.719,15.719,0,0,1,2.673.2c9.519,1.667,15.462,8.926,13.285,16.217-1.875,6.269-9.154,10.52-17.207,10.52a22.9,22.9,0,0,1-3.953-.343c-3-.528-6.92-2.6-10.863-5.182h.389c3.86,0,6.576.12,6.576.12s-22.782-12.414-23.937-13.453c.341,0,.684.005,1.029.005m-34.125-32.527c-3.562,0-6.721,1.941-7.392,4.714l-10.63,44.238c-.755,3.123,1.944,6.126,6.032,6.706l142.267,20.055a9.826,9.826,0,0,0,1.376.1c3.556,0,6.707-1.94,7.377-4.717l10.63-44.238c.744-3.122-1.955-6.126-6.031-6.7l-142.267-20.064a9.925,9.925,0,0,0-1.361-.094" transform="translate(-226.129 1132.755)" fill="#fff"/>
                </g>
              </g>
              <g id="Groupe_96" data-name="Groupe 96" transform="translate(51.244 24.443)">
                <g id="Groupe_95" data-name="Groupe 95">
                  <path id="Tracé_97" data-name="Tracé 97" d="M297.316-1099.893a92.017,92.017,0,0,0,9.788-.674s-2.155-.468-4.6-1.2a33.925,33.925,0,0,1,7.611-1.358,6.292,6.292,0,0,1,1.086.081c3.8.664,6.176,3.565,5.309,6.484-.745,2.5-3.652,4.206-6.874,4.206a9.156,9.156,0,0,1-1.59-.14,13.352,13.352,0,0,1-4.343-2.067h.365c1.428,0,2.423.043,2.423.043s-9.119-4.96-9.575-5.377h.4m3.372-13.057c-5.06,0-12.5,1.635-19.076,3.407,6.12,1.829,11.5,2.987,11.5,2.987a228.422,228.422,0,0,1-24.429,1.69c-.346,0-.689,0-1.029,0,1.155,1.038,23.937,13.452,23.937,13.452s-2.715-.12-6.576-.12h-.389c3.943,2.587,7.864,4.654,10.863,5.182a22.876,22.876,0,0,0,3.953.343c8.053,0,15.332-4.251,17.207-10.52,2.177-7.292-3.766-14.55-13.285-16.217a15.746,15.746,0,0,0-2.673-.2" transform="translate(-267.65 1112.95)" fill="#e74e00"/>
                </g>
              </g>
            </g>
          </g>
        </g>
      </g>
      <g id="Groupe_184" data-name="Groupe 184" transform="translate(0 23.997)">
        <g id="Groupe_101" data-name="Groupe 101" transform="translate(6.913 433.872)" opacity="0.838">
          <g id="Groupe_100" data-name="Groupe 100">
            <path id="heart" d="M241.3-1142.514a8.65,8.65,0,0,0-11.614,3.84v0l-1.058,2.107-2.107-1.059a8.655,8.655,0,0,0-11.485,4.233,8.657,8.657,0,0,0,3.715,11.225l2.107,1.06,15.457,7.769,7.772-15.456,1.059-2.106a8.649,8.649,0,0,0-3.841-11.613h0Z" transform="translate(-214.237 1143.438)" fill="#161615" opacity="0.2"/>
          </g>
        </g>
        <g id="Groupe_103" data-name="Groupe 103" transform="translate(159.091 354.483)" opacity="0.262">
          <g id="Groupe_102" data-name="Groupe 102">
            <path id="heart-2" data-name="heart" d="M368.5-1197.167a8.647,8.647,0,0,0-11.389-4.459h0l-2.16.946-.944-2.16a8.656,8.656,0,0,0-11.542-4.075,8.655,8.655,0,0,0-4.309,11.01l.945,2.162,6.935,15.848,15.849-6.934,2.16-.944a8.65,8.65,0,0,0,4.459-11.39v0Z" transform="translate(-337.539 1207.763)" fill="#161615" opacity="0.2"/>
          </g>
        </g>
        <g id="Groupe_105" data-name="Groupe 105" transform="translate(144.442 368.847)" opacity="0.266">
          <g id="Groupe_104" data-name="Groupe 104">
            <path id="heart-3" data-name="heart" d="M356.678-1188.782a8.649,8.649,0,0,0-11.916-2.762l0,0-2,1.248-1.248-2a8.657,8.657,0,0,0-12.011-2.36,8.657,8.657,0,0,0-2.668,11.519l1.249,2,9.158,14.677,14.678-9.157,2-1.247a8.65,8.65,0,0,0,2.762-11.916v-.005Z" transform="translate(-325.67 1196.125)" fill="#161615" opacity="0.2"/>
          </g>
        </g>
        <g id="Groupe_107" data-name="Groupe 107" transform="translate(23.573 299.743)" opacity="0.831">
          <g id="Groupe_106" data-name="Groupe 106">
            <path id="heart-4" data-name="heart" d="M248.683-1252.086a8.65,8.65,0,0,0-9.33,7.91v0l-.193,2.35-2.35-.194a8.655,8.655,0,0,0-9.064,8.226,8.656,8.656,0,0,0,7.647,9.018l2.351.194,17.242,1.416,1.418-17.242.194-2.348a8.651,8.651,0,0,0-7.91-9.331h0Z" transform="translate(-227.736 1252.116)" fill="#161615" opacity="0.2"/>
          </g>
        </g>
        <g id="Groupe_109" data-name="Groupe 109" transform="translate(1.724 237.323)" opacity="0.75">
          <g id="Groupe_108" data-name="Groupe 108">
            <path id="heart-5" data-name="heart" d="M240.167-1300.158a8.648,8.648,0,0,0-12.232,0l0,0-1.666,1.668-1.666-1.668a8.656,8.656,0,0,0-12.234.41,8.655,8.655,0,0,0,0,11.824l1.667,1.668,12.233,12.232,12.234-12.232,1.666-1.666a8.65,8.65,0,0,0,0-12.232l0,0Z" transform="translate(-210.032 1302.692)" fill="#161615" opacity="0.2"/>
          </g>
        </g>
        <g id="Groupe_111" data-name="Groupe 111" transform="translate(123.968 193.308)" opacity="0.325">
          <g id="Groupe_110" data-name="Groupe 110">
            <path id="heart-6" data-name="heart" d="M336.7-1337.247a8.65,8.65,0,0,0-11.777,3.308v0l-1.154,2.057-2.055-1.155a8.656,8.656,0,0,0-11.667,3.706,8.656,8.656,0,0,0,3.2,11.382l2.057,1.155,15.087,8.465,8.468-15.085,1.153-2.055a8.65,8.65,0,0,0-3.306-11.777h0Z" transform="translate(-309.081 1338.356)" fill="#161615" opacity="0.2"/>
          </g>
        </g>
        <g id="Groupe_113" data-name="Groupe 113" transform="translate(141.977 174.86)" opacity="0.405">
          <g id="Groupe_112" data-name="Groupe 112">
            <path id="heart-7" data-name="heart" d="M350.474-1352.456a8.649,8.649,0,0,0-11.533,4.074v0l-1.016,2.128-2.126-1.017a8.655,8.655,0,0,0-11.4,4.464,8.654,8.654,0,0,0,3.939,11.147l2.128,1.018,15.61,7.456,7.459-15.609,1.016-2.127a8.65,8.65,0,0,0-4.074-11.534l0,0Z" transform="translate(-323.672 1353.303)" fill="#161615" opacity="0.2"/>
          </g>
        </g>
        <g id="Groupe_115" data-name="Groupe 115" transform="translate(162.233 162.554)" opacity="0.486">
          <g id="Groupe_114" data-name="Groupe 114">
            <path id="heart-8" data-name="heart" d="M367.022-1362.387a8.65,8.65,0,0,0-11.575,3.953v0l-1.038,2.118-2.115-1.039a8.656,8.656,0,0,0-11.445,4.344,8.657,8.657,0,0,0,3.824,11.188l2.118,1.04,15.531,7.619,7.621-15.531,1.038-2.116a8.647,8.647,0,0,0-3.953-11.575h0Z" transform="translate(-340.085 1363.273)" fill="#161615" opacity="0.2"/>
          </g>
        </g>
        <g id="Groupe_117" data-name="Groupe 117" transform="translate(251.737 155.903)" opacity="0.823">
          <g id="Groupe_116" data-name="Groupe 116">
            <path id="heart-9" data-name="heart" d="M442.207-1366.568a8.648,8.648,0,0,0-12.2.911v0l-1.538,1.788-1.786-1.539a8.657,8.657,0,0,0-12.17,1.323,8.657,8.657,0,0,0,.884,11.791l1.788,1.539,13.112,11.284,11.287-13.112,1.537-1.787a8.649,8.649,0,0,0-.911-12.2l0,0Z" transform="translate(-412.605 1368.663)" fill="#161615" opacity="0.2"/>
          </g>
        </g>
        <g id="Groupe_119" data-name="Groupe 119" transform="translate(252.012 49.14)" opacity="0.779">
          <g id="Groupe_118" data-name="Groupe 118">
            <path id="heart-10" data-name="heart" d="M442.962-1452.633a8.648,8.648,0,0,0-12.231,0l0,0-1.667,1.669-1.666-1.669a8.656,8.656,0,0,0-12.233.411,8.655,8.655,0,0,0,0,11.823l1.667,1.669,12.232,12.232L441.3-1438.73l1.666-1.666a8.648,8.648,0,0,0,0-12.232l0,0Z" transform="translate(-412.828 1455.168)" fill="#161615" opacity="0.2"/>
          </g>
        </g>
        <g id="Groupe_121" data-name="Groupe 121" transform="translate(271.995 53.056)" opacity="0.854">
          <g id="Groupe_120" data-name="Groupe 120">
            <path id="heart-11" data-name="heart" d="M459.154-1449.46a8.65,8.65,0,0,0-12.232,0l0,0-1.666,1.667-1.666-1.667a8.654,8.654,0,0,0-12.234.411,8.655,8.655,0,0,0,0,11.824l1.667,1.669,12.233,12.231,12.235-12.231,1.666-1.667a8.649,8.649,0,0,0,0-12.231l0,0Z" transform="translate(-429.019 1451.994)" fill="#161615" opacity="0.2"/>
          </g>
        </g>
        <g id="Groupe_123" data-name="Groupe 123" transform="translate(0 10.88)" opacity="0.648">
          <g id="Groupe_122" data-name="Groupe 122">
            <path id="heart-12" data-name="heart" d="M238.67-1483.727a8.651,8.651,0,0,0-12.231.186l0,0-1.64,1.693-1.692-1.642a8.654,8.654,0,0,0-12.226.6,8.656,8.656,0,0,0,.181,11.823l1.693,1.643,12.42,12.042,12.044-12.418,1.641-1.692a8.651,8.651,0,0,0-.186-12.231l0,0Z" transform="translate(-208.635 1486.167)" fill="#161615" opacity="0.2"/>
          </g>
        </g>
        <g id="Groupe_125" data-name="Groupe 125" transform="translate(22.98)" opacity="0.794">
          <g id="Groupe_124" data-name="Groupe 124">
            <path id="heart-13" data-name="heart" d="M257.322-1492.512a8.649,8.649,0,0,0-12.231.125l0,0-1.649,1.686-1.685-1.65a8.655,8.655,0,0,0-12.228.538,8.656,8.656,0,0,0,.123,11.824l1.685,1.65,12.36,12.1,12.106-12.359,1.649-1.684a8.651,8.651,0,0,0-.126-12.232h0Z" transform="translate(-227.255 1494.983)" fill="#161615" opacity="0.2"/>
          </g>
        </g>
        <g id="Groupe_127" data-name="Groupe 127" transform="translate(3.297 41.055)" opacity="0.446">
          <g id="Groupe_126" data-name="Groupe 126">
            <path id="heart-14" data-name="heart" d="M241.135-1459.452a8.647,8.647,0,0,0-12.218.548l0,0-1.59,1.74-1.74-1.591a8.657,8.657,0,0,0-12.2.961,8.656,8.656,0,0,0,.532,11.812l1.741,1.592,12.771,11.669,11.67-12.77,1.591-1.74a8.65,8.65,0,0,0-.549-12.22l0,0Z" transform="translate(-211.307 1461.718)" fill="#161615" opacity="0.2"/>
          </g>
        </g>
        <g id="Groupe_129" data-name="Groupe 129" transform="translate(48.967 19.536)" opacity="0.847">
          <g id="Groupe_128" data-name="Groupe 128">
            <path id="heart-15" data-name="heart" d="M277.812-1477.13a8.65,8.65,0,0,0-12.185,1.065l0,0-1.514,1.806-1.806-1.515a8.656,8.656,0,0,0-12.152,1.479,8.655,8.655,0,0,0,1.033,11.778l1.807,1.517,13.255,11.116,11.119-13.254,1.514-1.806a8.648,8.648,0,0,0-1.066-12.185l0,0Z" transform="translate(-248.311 1479.154)" fill="#161615" opacity="0.2"/>
          </g>
        </g>
        <g id="Groupe_131" data-name="Groupe 131" transform="translate(20.084 24.701)" opacity="0.646">
          <g id="Groupe_130" data-name="Groupe 130">
            <path id="heart-16" data-name="heart" d="M254.741-1472.7a8.65,8.65,0,0,0-12.22.542l0,0-1.591,1.74-1.739-1.592a8.655,8.655,0,0,0-12.2.955,8.655,8.655,0,0,0,.526,11.811l1.74,1.594,12.765,11.676,11.678-12.764,1.591-1.739a8.65,8.65,0,0,0-.542-12.22l0,0Z" transform="translate(-224.909 1474.969)" fill="#161615" opacity="0.2"/>
          </g>
        </g>
        <g id="Groupe_133" data-name="Groupe 133" transform="translate(11.836 71.917)" opacity="0.367">
          <g id="Groupe_132" data-name="Groupe 132">
            <path id="heart-17" data-name="heart" d="M247.373-1434.911a8.649,8.649,0,0,0-12.131,1.566l0,0-1.439,1.867-1.866-1.44a8.655,8.655,0,0,0-12.08,1.976,8.654,8.654,0,0,0,1.516,11.726l1.867,1.441,13.7,10.564,10.565-13.7,1.439-1.867a8.648,8.648,0,0,0-1.566-12.13h0Z" transform="translate(-218.225 1436.713)" fill="#161615" opacity="0.2"/>
          </g>
        </g>
        <g id="Groupe_135" data-name="Groupe 135" transform="translate(47.997 65.391)" opacity="0.63">
          <g id="Groupe_134" data-name="Groupe 134">
            <path id="heart-18" data-name="heart" d="M275.134-1440.9a8.648,8.648,0,0,0-11.772,3.321l0,0-1.15,2.057-2.057-1.152a8.655,8.655,0,0,0-11.662,3.72,8.656,8.656,0,0,0,3.214,11.378l2.059,1.153,15.1,8.447,8.449-15.1,1.15-2.056a8.648,8.648,0,0,0-3.321-11.772l0,0Z" transform="translate(-247.525 1442.001)" fill="#161615" opacity="0.2"/>
          </g>
        </g>
        <g id="Groupe_137" data-name="Groupe 137" transform="translate(94.901 60.66)" opacity="0.898">
          <g id="Groupe_136" data-name="Groupe 136">
            <path id="heart-19" data-name="heart" d="M311.757-1445.137a8.649,8.649,0,0,0-11.35,4.561v0l-.924,2.17-2.169-.925a8.654,8.654,0,0,0-11.2,4.942,8.656,8.656,0,0,0,4.41,10.971l2.17.927,15.912,6.787,6.789-15.912.924-2.169a8.649,8.649,0,0,0-4.56-11.35h0Z" transform="translate(-285.529 1445.833)" fill="#161615" opacity="0.2"/>
          </g>
        </g>
        <g id="Groupe_139" data-name="Groupe 139" transform="translate(84.748 75.959)" opacity="0.902">
          <g id="Groupe_138" data-name="Groupe 138">
            <path id="heart-20" data-name="heart" d="M302.641-1432.936a8.651,8.651,0,0,0-11.047,5.253v0l-.789,2.222-2.222-.79a8.654,8.654,0,0,0-10.871,5.626,8.654,8.654,0,0,0,5.077,10.677l2.223.791,16.3,5.792,5.795-16.3.789-2.22a8.649,8.649,0,0,0-5.251-11.047h0Z" transform="translate(-277.303 1433.438)" fill="#161615" opacity="0.2"/>
          </g>
        </g>
        <g id="Groupe_141" data-name="Groupe 141" transform="translate(31.535 395.989)" opacity="0.53">
          <g id="Groupe_140" data-name="Groupe 140">
            <path id="heart-21" data-name="heart" d="M251.814-1174.1a8.649,8.649,0,0,0-7.868,9.365v0l.206,2.349-2.349.2a8.656,8.656,0,0,0-7.553,9.633,8.654,8.654,0,0,0,9.054,7.6l2.351-.2,17.234-1.5-1.5-17.234-.2-2.349a8.647,8.647,0,0,0-9.365-7.866h0Z" transform="translate(-234.187 1174.133)" fill="#161615" opacity="0.2"/>
          </g>
        </g>
        <g id="Groupe_143" data-name="Groupe 143" transform="translate(7.871 365.575)" opacity="0.678">
          <g id="Groupe_142" data-name="Groupe 142">
            <path id="heart-22" data-name="heart" d="M231.684-1198.7a8.651,8.651,0,0,0-7.427,9.719v0l.313,2.337-2.337.312a8.656,8.656,0,0,0-7.1,9.971,8.655,8.655,0,0,0,9.4,7.177l2.339-.312,17.146-2.3-2.294-17.147-.312-2.336a8.649,8.649,0,0,0-9.719-7.427h0Z" transform="translate(-215.013 1198.775)" fill="#161615" opacity="0.2"/>
          </g>
        </g>
        <g id="Groupe_145" data-name="Groupe 145" transform="translate(62.152 362.152)" opacity="0.332">
          <g id="Groupe_144" data-name="Groupe 144">
            <path id="heart-23" data-name="heart" d="M280.242-1201.507a8.65,8.65,0,0,0-9.456,7.758v0l-.231,2.346-2.346-.232a8.655,8.655,0,0,0-9.2,8.079,8.657,8.657,0,0,0,7.5,9.14l2.348.231,17.216,1.694,1.7-17.217.231-2.345a8.648,8.648,0,0,0-7.758-9.456h0Z" transform="translate(-258.994 1201.55)" fill="#161615" opacity="0.2"/>
          </g>
        </g>
        <g id="Groupe_147" data-name="Groupe 147" transform="translate(83.628 357.619)" opacity="0.27">
          <g id="Groupe_146" data-name="Groupe 146">
            <path id="heart-24" data-name="heart" d="M303.024-1204.422a8.648,8.648,0,0,0-11.479,4.223l0,0-.987,2.14-2.14-.989a8.655,8.655,0,0,0-11.339,4.612,8.656,8.656,0,0,0,4.085,11.1l2.141.99,15.706,7.252,7.255-15.706.987-2.139a8.649,8.649,0,0,0-4.223-11.479l0,0Z" transform="translate(-276.395 1205.222)" fill="#161615" opacity="0.2"/>
          </g>
        </g>
        <g id="Groupe_149" data-name="Groupe 149" transform="translate(35.056 330.774)" opacity="0.62">
          <g id="Groupe_148" data-name="Groupe 148">
            <path id="heart-25" data-name="heart" d="M255.994-1226.973a8.649,8.649,0,0,0-8.467,8.828v0l.051,2.357-2.357.049a8.655,8.655,0,0,0-8.169,9.116,8.655,8.655,0,0,0,8.536,8.181l2.359-.049,17.295-.366-.364-17.3-.051-2.358a8.649,8.649,0,0,0-8.828-8.465h0Z" transform="translate(-237.039 1226.974)" fill="#161615" opacity="0.2"/>
          </g>
        </g>
        <g id="Groupe_151" data-name="Groupe 151" transform="translate(60.23 311.83)" opacity="0.58">
          <g id="Groupe_150" data-name="Groupe 150">
            <path id="heart-26" data-name="heart" d="M282.506-1241.872a8.649,8.649,0,0,0-10.951,5.449v0l-.749,2.236-2.235-.75a8.655,8.655,0,0,0-10.769,5.819,8.655,8.655,0,0,0,5.269,10.584l2.238.75,16.4,5.5,5.5-16.4.749-2.234a8.648,8.648,0,0,0-5.449-10.951h0Z" transform="translate(-257.437 1242.323)" fill="#161615" opacity="0.2"/>
          </g>
        </g>
        <g id="Groupe_153" data-name="Groupe 153" transform="translate(85.74 303.407)" opacity="0.377">
          <g id="Groupe_152" data-name="Groupe 152">
            <path id="heart-27" data-name="heart" d="M307.522-1247.181a8.65,8.65,0,0,0-12.174,1.191l0,0-1.5,1.823-1.82-1.5a8.656,8.656,0,0,0-12.136,1.6,8.657,8.657,0,0,0,1.154,11.768l1.823,1.5,13.367,10.979,10.982-13.367,1.5-1.82a8.649,8.649,0,0,0-1.191-12.174l0,0Z" transform="translate(-278.106 1249.148)" fill="#161615" opacity="0.2"/>
          </g>
        </g>
        <g id="Groupe_155" data-name="Groupe 155" transform="translate(131.223 309.125)" opacity="0.208">
          <g id="Groupe_154" data-name="Groupe 154">
            <path id="heart-28" data-name="heart" d="M345.969-1234.572a8.652,8.652,0,0,0-11.516-4.125l0,0-2.132,1.008-1.007-2.133a8.656,8.656,0,0,0-11.657-3.736,8.656,8.656,0,0,0-3.984,11.132l1.007,2.132,7.4,15.638,15.641-7.393,2.13-1.007a8.649,8.649,0,0,0,4.125-11.516v-.005Z" transform="translate(-314.959 1244.515)" fill="#161615" opacity="0.2"/>
          </g>
        </g>
        <g id="Groupe_157" data-name="Groupe 157" transform="translate(163.461 279.403)" opacity="0.167">
          <g id="Groupe_156" data-name="Groupe 156">
            <path id="heart-29" data-name="heart" d="M372.1-1260.947a8.649,8.649,0,0,0-11.877-2.925h0l-2.017,1.222-1.221-2.018a8.656,8.656,0,0,0-11.978-2.525,8.655,8.655,0,0,0-2.825,11.481l1.221,2.019,8.955,14.8,14.8-8.954,2.017-1.22a8.651,8.651,0,0,0,2.925-11.878v0Z" transform="translate(-341.08 1268.597)" fill="#161615" opacity="0.2"/>
          </g>
        </g>
        <g id="Groupe_159" data-name="Groupe 159" transform="translate(197.623 267.428)" opacity="0.29">
          <g id="Groupe_158" data-name="Groupe 158">
            <path id="heart-30" data-name="heart" d="M399.191-1274.851a8.65,8.65,0,0,0-12.215-.633l0,0-1.75,1.581-1.578-1.752a8.656,8.656,0,0,0-12.239-.221,8.657,8.657,0,0,0-.61,11.808l1.58,1.752,11.585,12.847,12.849-11.586,1.75-1.578a8.65,8.65,0,0,0,.633-12.216l0,0Z" transform="translate(-368.76 1278.3)" fill="#161615" opacity="0.2"/>
          </g>
        </g>
        <g id="Groupe_161" data-name="Groupe 161" transform="translate(233.952 251.034)" opacity="0.632">
          <g id="Groupe_160" data-name="Groupe 160">
            <path id="heart-31" data-name="heart" d="M428.239-1289.134a8.651,8.651,0,0,0-12.231.17l0,0-1.643,1.691-1.69-1.644a8.656,8.656,0,0,0-12.227.584,8.655,8.655,0,0,0,.167,11.822l1.691,1.645,12.4,12.058,12.06-12.4,1.643-1.69a8.65,8.65,0,0,0-.17-12.231l0,0Z" transform="translate(-398.195 1291.583)" fill="#161615" opacity="0.2"/>
          </g>
        </g>
        <g id="Groupe_163" data-name="Groupe 163" transform="translate(212.098 228.122)" opacity="0.568">
          <g id="Groupe_162" data-name="Groupe 162">
            <path id="heart-32" data-name="heart" d="M409.672-1308.324a8.649,8.649,0,0,0-12.137,1.515l0,0-1.447,1.862-1.861-1.449a8.655,8.655,0,0,0-12.088,1.927,8.657,8.657,0,0,0,1.466,11.732l1.862,1.449,13.656,10.619,10.621-13.656,1.446-1.86a8.648,8.648,0,0,0-1.514-12.137l0,0Z" transform="translate(-380.488 1310.147)" fill="#161615" opacity="0.2"/>
          </g>
        </g>
        <g id="Groupe_165" data-name="Groupe 165" transform="translate(247.186 203.254)" opacity="0.992">
          <g id="Groupe_164" data-name="Groupe 164">
            <path id="heart-33" data-name="heart" d="M438.456-1328.247a8.649,8.649,0,0,0-12.19,1.009v0l-1.523,1.8-1.8-1.523a8.654,8.654,0,0,0-12.158,1.422,8.656,8.656,0,0,0,.979,11.783l1.8,1.525,13.2,11.178,11.179-13.2,1.523-1.8a8.649,8.649,0,0,0-1.011-12.19l0,0Z" transform="translate(-408.918 1330.297)" fill="#161615" opacity="0.2"/>
          </g>
        </g>
        <g id="Groupe_167" data-name="Groupe 167" transform="translate(226.756 161.52)" opacity="0.714">
          <g id="Groupe_166" data-name="Groupe 166">
            <path id="heart-34" data-name="heart" d="M421.444-1362.35a8.649,8.649,0,0,0-12.118,1.656l0,0-1.426,1.878-1.877-1.426a8.656,8.656,0,0,0-12.065,2.066,8.656,8.656,0,0,0,1.6,11.714l1.878,1.428,13.778,10.459,10.463-13.777,1.424-1.877a8.648,8.648,0,0,0-1.655-12.118l0,0Z" transform="translate(-392.364 1364.112)" fill="#161615" opacity="0.2"/>
          </g>
        </g>
        <g id="Groupe_169" data-name="Groupe 169" transform="translate(218.336 104.002)" opacity="0.485">
          <g id="Groupe_168" data-name="Groupe 168">
            <path id="heart-35" data-name="heart" d="M415.531-1408.315a8.649,8.649,0,0,0-12.228.268l0,0-1.629,1.7-1.7-1.63a8.656,8.656,0,0,0-12.222.68,8.658,8.658,0,0,0,.26,11.821l1.7,1.632,12.5,11.959,11.962-12.5,1.629-1.7a8.648,8.648,0,0,0-.268-12.228v0Z" transform="translate(-385.542 1410.715)" fill="#161615" opacity="0.2"/>
          </g>
        </g>
        <g id="Groupe_171" data-name="Groupe 171" transform="translate(200.986 104.475)" opacity="0.423">
          <g id="Groupe_170" data-name="Groupe 170">
            <path id="heart-36" data-name="heart" d="M400.745-1408.464a8.65,8.65,0,0,0-12.151,1.411l0,0-1.463,1.849-1.848-1.464a8.655,8.655,0,0,0-12.1,1.822,8.654,8.654,0,0,0,1.366,11.743l1.849,1.465,13.564,10.737,10.74-13.564,1.462-1.847a8.649,8.649,0,0,0-1.411-12.15l0,0Z" transform="translate(-371.484 1410.333)" fill="#161615" opacity="0.2"/>
          </g>
        </g>
        <g id="Groupe_173" data-name="Groupe 173" transform="translate(156.589 98.547)" opacity="0.453">
          <g id="Groupe_172" data-name="Groupe 172">
            <path id="heart-37" data-name="heart" d="M362.312-1414.288a8.648,8.648,0,0,0-11.532,4.074l0,0-1.015,2.128-2.128-1.017a8.656,8.656,0,0,0-11.4,4.464,8.655,8.655,0,0,0,3.941,11.147l2.129,1.018,15.61,7.456,7.458-15.61,1.016-2.128a8.649,8.649,0,0,0-4.075-11.532h0Z" transform="translate(-335.512 1415.136)" fill="#161615" opacity="0.2"/>
          </g>
        </g>
        <g id="Groupe_175" data-name="Groupe 175" transform="translate(60.132 109.254)" opacity="0.541">
          <g id="Groupe_174" data-name="Groupe 174">
            <path id="heart-38" data-name="heart" d="M283.314-1405.828a8.649,8.649,0,0,0-11.26,4.777v0l-.883,2.186-2.186-.884a8.656,8.656,0,0,0-11.1,5.159,8.655,8.655,0,0,0,4.621,10.883l2.187.885,16.041,6.478,6.481-16.041.882-2.185a8.649,8.649,0,0,0-4.778-11.259l0,0Z" transform="translate(-257.357 1406.46)" fill="#161615" opacity="0.2"/>
          </g>
        </g>
        <g id="Groupe_177" data-name="Groupe 177" transform="translate(44.506 152.95)" opacity="0.38">
          <g id="Groupe_176" data-name="Groupe 176">
            <path id="heart-39" data-name="heart" d="M272.734-1369.79a8.647,8.647,0,0,0-11.886,2.883l0,0-1.226,2.014-2.013-1.228a8.658,8.658,0,0,0-11.793,3.286,8.657,8.657,0,0,0,2.789,11.49l2.014,1.228,14.773,9,9-14.773,1.227-2.013a8.65,8.65,0,0,0-2.883-11.886l0,0Z" transform="translate(-244.696 1371.056)" fill="#161615" opacity="0.2"/>
          </g>
        </g>
        <g id="Groupe_179" data-name="Groupe 179" transform="translate(63.447 157.42)" opacity="0.364">
          <g id="Groupe_178" data-name="Groupe 178">
            <path id="heart-40" data-name="heart" d="M287.337-1366.437a8.649,8.649,0,0,0-11.682,3.626v0l-1.1,2.087-2.086-1.1a8.655,8.655,0,0,0-11.562,4.019,8.655,8.655,0,0,0,3.506,11.292l2.087,1.1,15.31,8.053,8.056-15.309,1.1-2.086a8.651,8.651,0,0,0-3.626-11.683h0Z" transform="translate(-260.043 1367.434)" fill="#161615" opacity="0.2"/>
          </g>
        </g>
        <g id="Groupe_181" data-name="Groupe 181" transform="translate(88.985 124.605)" opacity="0.528">
          <g id="Groupe_180" data-name="Groupe 180">
            <path id="heart-41" data-name="heart" d="M305.62-1393.6a8.648,8.648,0,0,0-10.884,5.579v0l-.722,2.244-2.244-.724a8.656,8.656,0,0,0-10.7,5.947,8.658,8.658,0,0,0,5.4,10.522l2.245.723,16.467,5.3,5.3-16.467.722-2.244a8.647,8.647,0,0,0-5.578-10.884h0Z" transform="translate(-280.735 1394.022)" fill="#161615" opacity="0.2"/>
          </g>
        </g>
        <g id="Groupe_183" data-name="Groupe 183" transform="translate(103.297 161.107)" opacity="0.41">
          <g id="Groupe_182" data-name="Groupe 182">
            <path id="heart-42" data-name="heart" d="M318.552-1363.753a8.65,8.65,0,0,0-11.347,4.567v0l-.923,2.17-2.17-.924a8.655,8.655,0,0,0-11.194,4.95,8.655,8.655,0,0,0,4.416,10.968l2.171.925,15.916,6.777,6.779-15.916.923-2.168a8.649,8.649,0,0,0-4.566-11.347h0Z" transform="translate(-292.332 1364.447)" fill="#161615" opacity="0.2"/>
          </g>
        </g>
      </g>
      <g id="Groupe_251" data-name="Groupe 251" transform="translate(22.903)">
        <g id="Groupe_186" data-name="Groupe 186" transform="translate(11.81 416.306)" opacity="0.508">
          <g id="Groupe_185" data-name="Groupe 185">
            <path id="Tracé_98" data-name="Tracé 98" d="M261.868-1166c-2.475,4.31-4.206,8.158-4.206,8.158a129.835,129.835,0,0,1,1.21-19.278c-1.145.708-15.81,15.92-15.81,15.92s.447-2.143.9-5.186c-2.966,2.573-5.422,5.195-6.271,7.362a13.356,13.356,0,0,0,7.559,17.311,13.357,13.357,0,0,0,17.311-7.559C263.912-1152.725,263.054-1159.81,261.868-1166Zm-16.584,24.189a5.342,5.342,0,0,1-3.024-6.923,9.214,9.214,0,0,1,2.508-2.944c-.179,1.217-.358,2.074-.358,2.074s5.865-6.083,6.324-6.367a51.819,51.819,0,0,0-.485,7.71s.694-1.539,1.683-3.262c.474,2.473.817,5.306.274,6.689A5.34,5.34,0,0,1,245.284-1141.806Z" transform="translate(-236.761 1177.115)" fill="#161615" opacity="0.2"/>
          </g>
        </g>
        <g id="Groupe_188" data-name="Groupe 188" transform="translate(0 400.591)" opacity="0.684">
          <g id="Groupe_187" data-name="Groupe 187">
            <path id="Tracé_99" data-name="Tracé 99" d="M252.387-1178.707c-2.507,4.29-4.267,8.127-4.267,8.127a129.772,129.772,0,0,1,1.351-19.268c-1.15.7-15.927,15.8-15.927,15.8s.463-2.14.934-5.18c-2.984,2.553-5.459,5.155-6.325,7.316a13.357,13.357,0,0,0,7.432,17.365,13.359,13.359,0,0,0,17.366-7.432C254.332-1165.422,253.527-1172.514,252.387-1178.707Zm-16.762,24.065a5.341,5.341,0,0,1-2.973-6.945,9.208,9.208,0,0,1,2.53-2.926c-.189,1.216-.373,2.072-.373,2.072s5.909-6.042,6.37-6.321a51.87,51.87,0,0,0-.542,7.706s.7-1.534,1.707-3.25c.457,2.477.779,5.312.226,6.692A5.341,5.341,0,0,1,235.625-1154.642Z" transform="translate(-227.192 1189.848)" fill="#161615" opacity="0.2"/>
          </g>
        </g>
        <g id="Groupe_190" data-name="Groupe 190" transform="translate(113.964 366.973)" opacity="0.571">
          <g id="Groupe_189" data-name="Groupe 189">
            <path id="Tracé_100" data-name="Tracé 100" d="M346.625-1205.6c-3.23,3.776-5.643,7.24-5.643,7.24a129.9,129.9,0,0,1,4.753-18.723c-1.256.485-18.481,12.725-18.481,12.725s.836-2.024,1.839-4.933c-3.389,1.982-6.288,4.1-7.524,6.077a13.357,13.357,0,0,0,4.229,18.409,13.359,13.359,0,0,0,18.41-4.229C346.181-1192.186,346.647-1199.307,346.625-1205.6Zm-20.77,20.706a5.342,5.342,0,0,1-1.691-7.363,9.212,9.212,0,0,1,3.009-2.43c-.4,1.164-.736,1.973-.736,1.973s6.888-4.9,7.392-5.089a51.918,51.918,0,0,0-1.9,7.487s.965-1.385,2.256-2.9c.009,2.519-.178,5.366-.966,6.625A5.342,5.342,0,0,1,325.855-1184.9Z" transform="translate(-319.531 1217.087)" fill="#161615" opacity="0.2"/>
          </g>
        </g>
        <g id="Groupe_192" data-name="Groupe 192" transform="translate(95.926 352.313)" opacity="0.535">
          <g id="Groupe_191" data-name="Groupe 191">
            <path id="Tracé_101" data-name="Tracé 101" d="M331.9-1217.495c-3.183,3.815-5.555,7.306-5.555,7.306a129.777,129.777,0,0,1,4.53-18.777c-1.25.5-18.328,12.942-18.328,12.942s.811-2.034,1.78-4.954c-3.366,2.023-6.238,4.177-7.451,6.166a13.356,13.356,0,0,0,4.448,18.357,13.357,13.357,0,0,0,18.358-4.448C331.611-1204.071,331.994-1211.2,331.9-1217.495Zm-20.522,20.951a5.342,5.342,0,0,1-1.778-7.342,9.2,9.2,0,0,1,2.981-2.466c-.388,1.168-.712,1.981-.712,1.981s6.83-4.976,7.33-5.176a51.9,51.9,0,0,0-1.812,7.509s.949-1.395,2.223-2.922c.038,2.519-.115,5.369-.887,6.636A5.343,5.343,0,0,1,311.374-1196.543Z" transform="translate(-304.917 1228.965)" fill="#161615" opacity="0.2"/>
          </g>
        </g>
        <g id="Groupe_194" data-name="Groupe 194" transform="translate(26.593 331.234)" opacity="0.106">
          <g id="Groupe_193" data-name="Groupe 193">
            <path id="Tracé_102" data-name="Tracé 102" d="M277.066-1234.555c-3.746,3.266-6.637,6.34-6.637,6.34a129.834,129.834,0,0,1,7.431-17.829c-1.313.3-20.138,9.892-20.138,9.892s1.122-1.879,2.539-4.611c-3.642,1.466-6.819,3.143-8.328,4.915a13.356,13.356,0,0,0,1.5,18.83,13.356,13.356,0,0,0,18.829-1.5C274.669-1221.344,276.17-1228.321,277.066-1234.555ZM253.5-1217.1a5.342,5.342,0,0,1-.6-7.531,9.2,9.2,0,0,1,3.331-1.965c-.566,1.092-1.015,1.844-1.015,1.844s7.529-3.838,8.053-3.957a52.048,52.048,0,0,0-2.972,7.13s1.158-1.228,2.655-2.535c-.358,2.493-.958,5.284-1.922,6.414A5.343,5.343,0,0,1,253.5-1217.1Z" transform="translate(-248.739 1246.044)" fill="#161615" opacity="0.2"/>
          </g>
        </g>
        <g id="Groupe_196" data-name="Groupe 196" transform="translate(147.852 309.019)" opacity="0.483">
          <g id="Groupe_195" data-name="Groupe 195">
            <path id="Tracé_103" data-name="Tracé 103" d="M369.63-1253.7c-1.612,4.7-2.581,8.808-2.581,8.808a129.793,129.793,0,0,1-2.475-19.156c-.99.913-12.5,18.633-12.5,18.633s.032-2.189-.106-5.262c-2.422,3.09-4.336,6.13-4.758,8.42a13.355,13.355,0,0,0,10.71,15.558,13.358,13.358,0,0,0,15.559-10.71C374.157-1241.057,371.969-1247.849,369.63-1253.7Zm-11.686,26.9a5.341,5.341,0,0,1-4.284-6.223,9.21,9.21,0,0,1,1.9-3.368c.056,1.23.042,2.105.042,2.105s4.6-7.088,5-7.453a51.894,51.894,0,0,0,.99,7.662s.388-1.643,1.032-3.523c.935,2.339,1.81,5.055,1.541,6.516A5.341,5.341,0,0,1,357.944-1226.8Z" transform="translate(-346.989 1264.044)" fill="#161615" opacity="0.2"/>
          </g>
        </g>
        <g id="Groupe_198" data-name="Groupe 198" transform="translate(265.21 260.052)" opacity="0.686">
          <g id="Groupe_197" data-name="Groupe 197">
            <path id="Tracé_104" data-name="Tracé 104" d="M459.383-1295.7c.079,4.969.56,9.161.56,9.161a129.652,129.652,0,0,1-8.823-17.182c-.622,1.195-5.439,21.767-5.439,21.767s-.712-2.07-1.885-4.914c-1.23,3.729-2,7.237-1.621,9.534a13.355,13.355,0,0,0,15.352,11.005,13.357,13.357,0,0,0,11.005-15.352C467.929-1285.343,463.567-1290.992,459.383-1295.7Zm-1.872,29.269a5.342,5.342,0,0,1-6.14-4.4,9.2,9.2,0,0,1,.649-3.813c.468,1.138.753,1.966.753,1.966s1.927-8.228,2.175-8.706a51.835,51.835,0,0,0,3.529,6.872s-.191-1.677-.224-3.664c1.674,1.883,3.419,4.142,3.659,5.607A5.342,5.342,0,0,1,457.511-1266.431Z" transform="translate(-442.079 1303.72)" fill="#161615" opacity="0.2"/>
          </g>
        </g>
        <g id="Groupe_200" data-name="Groupe 200" transform="translate(248.02 269.782)" opacity="0.557">
          <g id="Groupe_199" data-name="Groupe 199">
            <path id="Tracé_105" data-name="Tracé 105" d="M444.924-1288.075c.232,4.965.843,9.14.843,9.14a129.854,129.854,0,0,1-9.351-16.9c-.584,1.213-4.761,21.925-4.761,21.925s-.776-2.046-2.036-4.854c-1.114,3.766-1.773,7.3-1.324,9.58a13.356,13.356,0,0,0,15.685,10.525,13.358,13.358,0,0,0,10.525-15.685C453.785-1277.989,449.251-1283.5,444.924-1288.075Zm-.965,29.313a5.345,5.345,0,0,1-6.275-4.21,9.233,9.233,0,0,1,.531-3.832c.5,1.123.815,1.942.815,1.942s1.67-8.284,1.9-8.77a51.883,51.883,0,0,0,3.74,6.76s-.243-1.67-.337-3.655c1.73,1.83,3.545,4.033,3.831,5.491A5.343,5.343,0,0,1,443.959-1258.762Z" transform="translate(-428.151 1295.836)" fill="#161615" opacity="0.2"/>
          </g>
        </g>
        <g id="Groupe_202" data-name="Groupe 202" transform="translate(256.144 216.701)" opacity="0.63">
          <g id="Groupe_201" data-name="Groupe 201">
            <path id="Tracé_106" data-name="Tracé 106" d="M449.8-1331.956c.717,4.917,1.735,9.013,1.735,9.013a129.784,129.784,0,0,1-10.963-15.9c-.463,1.264-2.591,22.286-2.591,22.286s-.973-1.961-2.5-4.631c-.739,3.855-1.05,7.435-.379,9.664a13.357,13.357,0,0,0,16.641,8.937,13.358,13.358,0,0,0,8.937-16.642C459.611-1322.787,454.557-1327.826,449.8-1331.956Zm1.912,29.265a5.341,5.341,0,0,1-6.656-3.574,9.216,9.216,0,0,1,.152-3.865c.612,1.068,1,1.853,1,1.853s.85-8.408,1.036-8.915a52.014,52.014,0,0,0,4.384,6.36s-.4-1.638-.692-3.6c1.9,1.651,3.922,3.667,4.351,5.089A5.341,5.341,0,0,1,451.714-1302.691Z" transform="translate(-434.733 1338.845)" fill="#161615" opacity="0.2"/>
          </g>
        </g>
        <g id="Groupe_204" data-name="Groupe 204" transform="translate(203.375 179.829)" opacity="0.396">
          <g id="Groupe_203" data-name="Groupe 203">
            <path id="Tracé_107" data-name="Tracé 107" d="M413.594-1358.764c-1.269,4.806-1.939,8.973-1.939,8.973a129.88,129.88,0,0,1-3.848-18.929c-.921.983-11.122,19.485-11.122,19.485s-.126-2.186-.485-5.242c-2.193,3.257-3.883,6.427-4.139,8.741a13.358,13.358,0,0,0,11.8,14.748,13.358,13.358,0,0,0,14.747-11.8C419.019-1346.482,416.349-1353.1,413.594-1358.764Zm-9.719,27.672a5.343,5.343,0,0,1-4.721-5.9,9.213,9.213,0,0,1,1.656-3.5c.143,1.223.194,2.1.194,2.1s4.08-7.4,4.448-7.794a51.917,51.917,0,0,0,1.539,7.571s.269-1.666.776-3.588c1.1,2.265,2.17,4.911,2.006,6.388A5.342,5.342,0,0,1,403.875-1331.092Z" transform="translate(-391.977 1368.72)" fill="#161615" opacity="0.2"/>
          </g>
        </g>
        <g id="Groupe_206" data-name="Groupe 206" transform="translate(217.967 192.695)" opacity="0.456">
          <g id="Groupe_205" data-name="Groupe 205">
            <path id="Tracé_108" data-name="Tracé 108" d="M422.619-1349.559c-.372,4.955-.273,9.175-.273,9.175a129.876,129.876,0,0,1-7.23-17.911c-.727,1.133-7.389,21.184-7.389,21.184s-.522-2.127-1.432-5.065c-1.562,3.6-2.647,7.026-2.478,9.348a13.356,13.356,0,0,0,14.292,12.352,13.357,13.357,0,0,0,12.35-14.292C430.191-1338.471,426.358-1344.492,422.619-1349.559Zm-4.518,28.978a5.342,5.342,0,0,1-5.715-4.94,9.2,9.2,0,0,1,.992-3.739c.363,1.176.573,2.027.573,2.027s2.663-8.02,2.955-8.474a51.838,51.838,0,0,0,2.892,7.164s-.04-1.688.109-3.67c1.5,2.028,3.029,4.434,3.136,5.917A5.341,5.341,0,0,1,418.1-1320.582Z" transform="translate(-403.8 1358.296)" fill="#161615" opacity="0.2"/>
          </g>
        </g>
        <g id="Groupe_208" data-name="Groupe 208" transform="translate(229.51 155.697)" opacity="0.473">
          <g id="Groupe_207" data-name="Groupe 207">
            <path id="Tracé_109" data-name="Tracé 109" d="M435.5-1378.037c-1.511,4.734-2.392,8.863-2.392,8.863a129.992,129.992,0,0,1-2.883-19.1c-.97.933-12.1,18.9-12.1,18.9s-.016-2.189-.218-5.259c-2.356,3.141-4.2,6.222-4.578,8.518a13.356,13.356,0,0,0,11.04,15.327,13.357,13.357,0,0,0,15.327-11.04C440.291-1365.5,437.959-1372.24,435.5-1378.037Zm-11.11,27.142a5.342,5.342,0,0,1-4.416-6.13,9.217,9.217,0,0,1,1.831-3.407c.081,1.228.088,2.1.088,2.1s4.449-7.184,4.838-7.557a51.771,51.771,0,0,0,1.153,7.637s.353-1.65.956-3.543c.985,2.318,1.918,5.015,1.68,6.482A5.342,5.342,0,0,1,424.385-1350.895Z" transform="translate(-413.153 1388.273)" fill="#161615" opacity="0.2"/>
          </g>
        </g>
        <g id="Groupe_210" data-name="Groupe 210" transform="translate(141.448 156.649)" opacity="0.319">
          <g id="Groupe_209" data-name="Groupe 209">
            <path id="Tracé_110" data-name="Tracé 110" d="M364.039-1377.3c-1.476,4.745-2.326,8.88-2.326,8.88a129.787,129.787,0,0,1-3.022-19.078c-.964.941-11.958,18.984-11.958,18.984s-.032-2.19-.258-5.258c-2.331,3.159-4.157,6.252-4.513,8.553a13.356,13.356,0,0,0,11.152,15.246,13.356,13.356,0,0,0,15.245-11.152C368.926-1364.8,366.544-1371.526,364.039-1377.3Zm-10.91,27.224a5.34,5.34,0,0,1-4.46-6.1,9.2,9.2,0,0,1,1.806-3.42c.09,1.227.1,2.1.1,2.1s4.4-7.218,4.782-7.594a51.834,51.834,0,0,0,1.209,7.63s.341-1.652.931-3.551c1,2.312,1.955,5,1.727,6.469A5.341,5.341,0,0,1,353.129-1350.081Z" transform="translate(-341.801 1387.502)" fill="#161615" opacity="0.2"/>
          </g>
        </g>
        <g id="Groupe_212" data-name="Groupe 212" transform="translate(117.647 182.003)" opacity="0.097">
          <g id="Groupe_211" data-name="Groupe 211">
            <path id="Tracé_111" data-name="Tracé 111" d="M341.568-1358.116c-.444,4.95-.406,9.17-.406,9.17a129.778,129.778,0,0,1-6.971-18.013c-.744,1.122-7.694,21.076-7.694,21.076s-.491-2.134-1.358-5.086c-1.616,3.579-2.749,6.988-2.613,9.312a13.356,13.356,0,0,0,14.112,12.555,13.357,13.357,0,0,0,12.557-14.111C348.978-1346.921,345.234-1353,341.568-1358.116Zm-4.935,28.911a5.343,5.343,0,0,1-5.644-5.023,9.214,9.214,0,0,1,1.045-3.724c.347,1.181.543,2.034.543,2.034s2.779-7.98,3.077-8.429a51.942,51.942,0,0,0,2.788,7.2s-.015-1.687.162-3.667c1.466,2.047,2.964,4.476,3.051,5.96A5.343,5.343,0,0,1,336.633-1329.2Z" transform="translate(-322.516 1366.959)" fill="#161615" opacity="0.2"/>
          </g>
        </g>
        <g id="Groupe_214" data-name="Groupe 214" transform="translate(96.329 205.397)" opacity="0.015">
          <g id="Groupe_213" data-name="Groupe 213">
            <path id="Tracé_112" data-name="Tracé 112" d="M323.046-1339.745c-.068,4.969.29,9.175.29,9.175A129.721,129.721,0,0,1,315.021-1348c-.657,1.176-6.076,21.6-6.076,21.6s-.652-2.089-1.739-4.967c-1.339,3.69-2.212,7.174-1.9,9.482a13.356,13.356,0,0,0,15.022,11.451,13.356,13.356,0,0,0,11.451-15.021C331.283-1329.142,327.089-1334.916,323.046-1339.745Zm-2.731,29.2a5.342,5.342,0,0,1-6.009-4.58,9.213,9.213,0,0,1,.762-3.793c.434,1.151.695,1.987.695,1.987s2.167-8.168,2.43-8.638a51.919,51.919,0,0,0,3.325,6.972s-.142-1.681-.116-3.668c1.618,1.93,3.3,4.239,3.494,5.712A5.342,5.342,0,0,1,320.315-1310.544Z" transform="translate(-305.243 1348.004)" fill="#161615" opacity="0.2"/>
          </g>
        </g>
        <g id="Groupe_216" data-name="Groupe 216" transform="translate(72.571 216.919)" opacity="0.002">
          <g id="Groupe_215" data-name="Groupe 215">
            <path id="Tracé_113" data-name="Tracé 113" d="M302.093-1331.245c.425,4.952,1.2,9.1,1.2,9.1a129.751,129.751,0,0,1-10-16.525c-.537,1.235-3.906,22.093-3.906,22.093s-.855-2.014-2.223-4.771c-.968,3.806-1.49,7.359-.952,9.624a13.357,13.357,0,0,0,16.083,9.908A13.358,13.358,0,0,0,312.2-1317.9C311.341-1321.509,306.6-1326.84,302.093-1331.245Zm.174,29.328a5.342,5.342,0,0,1-6.433-3.963,9.224,9.224,0,0,1,.381-3.848c.547,1.1.889,1.908.889,1.908s1.348-8.343,1.563-8.837a51.853,51.853,0,0,0,4,6.609s-.309-1.66-.479-3.639c1.8,1.761,3.7,3.893,4.042,5.338A5.343,5.343,0,0,1,302.267-1301.917Z" transform="translate(-285.993 1338.668)" fill="#161615" opacity="0.2"/>
          </g>
        </g>
        <g id="Groupe_218" data-name="Groupe 218" transform="translate(19.462 151.069)" opacity="0.231">
          <g id="Groupe_217" data-name="Groupe 217">
            <path id="Tracé_114" data-name="Tracé 114" d="M253.776-1388.064c2.1,4.506,4.243,8.14,4.243,8.14a129.8,129.8,0,0,1-15.057-12.1c-.081,1.344,3.9,22.1,3.9,22.1s-1.493-1.6-3.722-3.721c.395,3.906,1.121,7.423,2.4,9.367a13.356,13.356,0,0,0,18.5,3.8,13.358,13.358,0,0,0,3.8-18.5C265.8-1382.087,259.515-1385.469,253.776-1388.064Zm10.21,27.494a5.344,5.344,0,0,1-7.4-1.519,9.216,9.216,0,0,1-.96-3.747c.891.848,1.488,1.488,1.488,1.488s-1.592-8.3-1.56-8.838a51.926,51.926,0,0,0,6.022,4.84s-.858-1.454-1.7-3.256c2.294,1.039,4.808,2.39,5.625,3.631A5.343,5.343,0,0,1,263.987-1360.57Z" transform="translate(-242.961 1392.023)" fill="#161615" opacity="0.2"/>
          </g>
        </g>
        <g id="Groupe_220" data-name="Groupe 220" transform="translate(26.757 169.64)" opacity="0.063">
          <g id="Groupe_219" data-name="Groupe 219">
            <path id="Tracé_115" data-name="Tracé 115" d="M259.9-1373.644c2.35,4.379,4.7,7.883,4.7,7.883a129.745,129.745,0,0,1-15.726-11.215c0,1.346,5.16,21.835,5.16,21.835s-1.583-1.511-3.93-3.5c.618,3.878,1.545,7.347,2.936,9.214a13.356,13.356,0,0,0,18.691,2.73,13.356,13.356,0,0,0,2.73-18.69C272.241-1368.366,265.773-1371.382,259.9-1373.644Zm11.772,26.862a5.344,5.344,0,0,1-7.477-1.093,9.23,9.23,0,0,1-1.174-3.685c.939.8,1.572,1.4,1.572,1.4s-2.066-8.195-2.065-8.733a51.983,51.983,0,0,0,6.289,4.485s-.939-1.4-1.88-3.154c2.35.906,4.937,2.11,5.824,3.3A5.341,5.341,0,0,1,271.667-1346.782Z" transform="translate(-248.872 1376.976)" fill="#161615" opacity="0.2"/>
          </g>
        </g>
        <g id="Groupe_222" data-name="Groupe 222" transform="translate(95.522 134.192)" opacity="0.296">
          <g id="Groupe_221" data-name="Groupe 221">
            <path id="Tracé_116" data-name="Tracé 116" d="M315.368-1401.642c2.055,4.524,4.17,8.176,4.17,8.176A129.832,129.832,0,0,1,304.59-1405.7c-.092,1.343,3.7,22.129,3.7,22.129s-1.48-1.615-3.69-3.755c.36,3.91,1.055,7.433,2.319,9.389a13.357,13.357,0,0,0,18.468,3.964,13.357,13.357,0,0,0,3.964-18.469C327.336-1395.558,321.083-1399,315.368-1401.642Zm9.964,27.584a5.342,5.342,0,0,1-7.387-1.586,9.235,9.235,0,0,1-.927-3.755c.884.856,1.476,1.5,1.476,1.5s-1.518-8.314-1.481-8.85a52.029,52.029,0,0,0,5.978,4.892s-.845-1.461-1.667-3.27c2.286,1.059,4.786,2.434,5.593,3.68A5.343,5.343,0,0,1,325.332-1374.059Z" transform="translate(-304.589 1405.698)" fill="#161615" opacity="0.2"/>
          </g>
        </g>
        <g id="Groupe_224" data-name="Groupe 224" transform="translate(137.276 101.261)" opacity="0.455">
          <g id="Groupe_223" data-name="Groupe 223">
            <path id="Tracé_117" data-name="Tracé 117" d="M357.236-1423.646c-.371,4.956-.271,9.175-.271,9.175a129.757,129.757,0,0,1-7.234-17.909c-.727,1.133-7.385,21.186-7.385,21.186s-.522-2.126-1.432-5.065c-1.562,3.6-2.646,7.026-2.477,9.349a13.358,13.358,0,0,0,14.294,12.348,13.357,13.357,0,0,0,12.348-14.293C364.809-1412.559,360.976-1418.578,357.236-1423.646Zm-4.512,28.98a5.344,5.344,0,0,1-5.718-4.939,9.225,9.225,0,0,1,.992-3.74c.363,1.176.573,2.027.573,2.027s2.662-8.021,2.953-8.474a51.828,51.828,0,0,0,2.892,7.162s-.038-1.687.109-3.669c1.5,2.028,3.03,4.434,3.138,5.916A5.344,5.344,0,0,1,352.724-1394.666Z" transform="translate(-338.42 1432.38)" fill="#161615" opacity="0.2"/>
          </g>
        </g>
        <g id="Groupe_226" data-name="Groupe 226" transform="translate(164.454 65.23)" opacity="0.868">
          <g id="Groupe_225" data-name="Groupe 225">
            <path id="Tracé_118" data-name="Tracé 118" d="M387.761-1450.074c-3.32,3.7-5.817,7.1-5.817,7.1a129.9,129.9,0,0,1,5.207-18.6c-1.268.454-18.784,12.268-18.784,12.268s.885-2,1.959-4.885c-3.437,1.9-6.386,3.948-7.669,5.891a13.355,13.355,0,0,0,3.779,18.506,13.358,13.358,0,0,0,18.508-3.779C386.99-1436.67,387.63-1443.777,387.761-1450.074Zm-21.268,20.195a5.343,5.343,0,0,1-1.512-7.4,9.232,9.232,0,0,1,3.068-2.356c-.43,1.155-.784,1.955-.784,1.955s7.005-4.727,7.513-4.909a52.024,52.024,0,0,0-2.082,7.44s1-1.36,2.326-2.84c-.053,2.519-.308,5.36-1.127,6.6A5.343,5.343,0,0,1,366.493-1429.879Z" transform="translate(-360.441 1461.574)" fill="#161615" opacity="0.2"/>
          </g>
        </g>
        <g id="Groupe_228" data-name="Groupe 228" transform="translate(123.693 62.441)" opacity="0.634">
          <g id="Groupe_227" data-name="Groupe 227">
            <path id="Tracé_119" data-name="Tracé 119" d="M348.122-1454.252c-.97,4.873-1.384,9.074-1.384,9.074a129.915,129.915,0,0,1-5-18.656c-.859,1.037-9.9,20.132-9.9,20.132s-.26-2.173-.807-5.2c-1.988,3.385-3.479,6.652-3.593,8.977a13.357,13.357,0,0,0,12.687,13.995,13.357,13.357,0,0,0,13.993-12.689C354.293-1442.328,351.22-1448.768,348.122-1454.252Zm-8,28.216a5.341,5.341,0,0,1-5.075-5.6,9.211,9.211,0,0,1,1.438-3.59c.218,1.211.323,2.079.323,2.079s3.616-7.637,3.96-8.052a51.866,51.866,0,0,0,2,7.46s.167-1.678.554-3.628c1.239,2.193,2.468,4.769,2.4,6.252A5.342,5.342,0,0,1,340.124-1426.036Z" transform="translate(-327.415 1463.834)" fill="#161615" opacity="0.2"/>
          </g>
        </g>
        <g id="Groupe_230" data-name="Groupe 230" transform="translate(64.206 83.748)" opacity="0.307">
          <g id="Groupe_229" data-name="Groupe 229">
            <path id="Tracé_120" data-name="Tracé 120" d="M290.481-1442.136c1.893,4.594,3.878,8.318,3.878,8.318a129.825,129.825,0,0,1-14.507-12.753c-.141,1.339,2.918,22.246,2.918,22.246s-1.422-1.665-3.554-3.881c.222,3.92.792,7.466,1.986,9.464a13.358,13.358,0,0,0,18.318,4.614,13.357,13.357,0,0,0,4.613-18.317C302.226-1435.633,296.1-1439.29,290.481-1442.136Zm8.984,27.918a5.342,5.342,0,0,1-7.326-1.845,9.212,9.212,0,0,1-.794-3.785c.853.888,1.422,1.553,1.422,1.553s-1.223-8.362-1.167-8.9a51.951,51.951,0,0,0,5.8,5.1s-.792-1.49-1.551-3.326c2.247,1.138,4.7,2.6,5.46,3.875A5.342,5.342,0,0,1,299.464-1414.218Z" transform="translate(-279.215 1446.57)" fill="#161615" opacity="0.2"/>
          </g>
        </g>
        <g id="Groupe_232" data-name="Groupe 232" transform="translate(33.257 106.039)" opacity="0.402">
          <g id="Groupe_231" data-name="Groupe 231">
            <path id="Tracé_121" data-name="Tracé 121" d="M264.993-1424.658c2.14,4.485,4.325,8.1,4.325,8.1a129.794,129.794,0,0,1-15.178-11.947c-.068,1.345,4.12,22.055,4.12,22.055s-1.509-1.584-3.759-3.682c.433,3.9,1.2,7.411,2.5,9.342a13.356,13.356,0,0,0,18.54,3.613,13.357,13.357,0,0,0,3.612-18.54C277.074-1418.8,270.756-1422.121,264.993-1424.658Zm10.486,27.39a5.343,5.343,0,0,1-7.416-1.445,9.21,9.21,0,0,1-1-3.737c.9.839,1.5,1.474,1.5,1.474s-1.675-8.282-1.648-8.822a51.859,51.859,0,0,0,6.07,4.779s-.873-1.445-1.729-3.239c2.305,1.016,4.832,2.342,5.661,3.574A5.343,5.343,0,0,1,275.478-1397.268Z" transform="translate(-254.138 1428.509)" fill="#161615" opacity="0.2"/>
          </g>
        </g>
        <g id="Groupe_234" data-name="Groupe 234" transform="translate(2.319 35.785)" opacity="0.581">
          <g id="Groupe_233" data-name="Groupe 233">
            <path id="Tracé_122" data-name="Tracé 122" d="M248.055-1476.62c-.423,4.952-.367,9.171-.367,9.171a129.755,129.755,0,0,1-7.046-17.983c-.739,1.125-7.606,21.108-7.606,21.108s-.5-2.132-1.378-5.08c-1.6,3.585-2.719,7-2.575,9.322a13.355,13.355,0,0,0,14.165,12.5,13.357,13.357,0,0,0,12.5-14.164C255.513-1465.456,251.743-1471.515,248.055-1476.62Zm-4.813,28.931a5.344,5.344,0,0,1-5.666-5,9.2,9.2,0,0,1,1.031-3.728c.352,1.18.552,2.031.552,2.031s2.746-7.991,3.041-8.442a51.911,51.911,0,0,0,2.819,7.192s-.022-1.688.147-3.667c1.475,2.041,2.982,4.464,3.076,5.947A5.343,5.343,0,0,1,243.242-1447.689Z" transform="translate(-229.071 1485.432)" fill="#161615" opacity="0.2"/>
          </g>
        </g>
        <g id="Groupe_236" data-name="Groupe 236" transform="translate(45.072)" opacity="0.653">
          <g id="Groupe_235" data-name="Groupe 235">
            <path id="Tracé_123" data-name="Tracé 123" d="M285.736-1504.311c-1.4,4.768-2.193,8.913-2.193,8.913a129.907,129.907,0,0,1-3.308-19.03c-.949.955-11.673,19.16-11.673,19.16s-.063-2.188-.336-5.253c-2.285,3.194-4.063,6.314-4.385,8.62a13.357,13.357,0,0,0,11.379,15.076A13.357,13.357,0,0,0,290.3-1488.2C290.811-1491.88,288.329-1498.571,285.736-1504.311Zm-10.5,27.384a5.342,5.342,0,0,1-4.552-6.03,9.19,9.19,0,0,1,1.755-3.447c.109,1.226.133,2.1.133,2.1s4.289-7.281,4.669-7.663a51.95,51.95,0,0,0,1.323,7.61s.316-1.658.877-3.564c1.037,2.3,2.029,4.971,1.824,6.442A5.342,5.342,0,0,1,275.236-1476.927Z" transform="translate(-263.712 1514.427)" fill="#161615" opacity="0.2"/>
          </g>
        </g>
        <g id="Groupe_238" data-name="Groupe 238" transform="translate(158.087 246.327)" opacity="0.309">
          <g id="Groupe_237" data-name="Groupe 237">
            <path id="Tracé_124" data-name="Tracé 124" d="M375-1305.693c-.652,4.926-.791,9.144-.791,9.144A129.934,129.934,0,0,1,368-1314.84c-.79,1.09-8.574,20.733-8.574,20.733s-.4-2.151-1.143-5.138c-1.764,3.509-3.04,6.866-3,9.194a13.356,13.356,0,0,0,13.571,13.139,13.357,13.357,0,0,0,13.138-13.571C381.933-1294.2,378.446-1300.424,375-1305.693Zm-6.147,28.676a5.343,5.343,0,0,1-5.428-5.255,9.213,9.213,0,0,1,1.2-3.677c.3,1.195.457,2.055.457,2.055s3.113-7.857,3.429-8.292a52.043,52.043,0,0,0,2.482,7.315s.057-1.687.317-3.657c1.378,2.108,2.773,4.6,2.8,6.083A5.343,5.343,0,0,1,368.852-1277.017Z" transform="translate(-355.282 1314.84)" fill="#161615" opacity="0.2"/>
          </g>
        </g>
        <g id="Groupe_240" data-name="Groupe 240" transform="translate(196.558 326.56)" opacity="0.458">
          <g id="Groupe_239" data-name="Groupe 239">
            <path id="Tracé_125" data-name="Tracé 125" d="M409.063-1239.495c-1.6,4.7-2.56,8.815-2.56,8.815a129.854,129.854,0,0,1-2.518-19.151c-.989.915-12.455,18.661-12.455,18.661s.026-2.188-.118-5.261c-2.415,3.1-4.321,6.14-4.739,8.43a13.357,13.357,0,0,0,10.746,15.535,13.356,13.356,0,0,0,15.535-10.744C413.62-1226.866,411.415-1233.653,409.063-1239.495Zm-11.626,26.925a5.343,5.343,0,0,1-4.3-6.214,9.213,9.213,0,0,1,1.9-3.37c.058,1.229.047,2.1.047,2.1s4.586-7.1,4.981-7.464a52.032,52.032,0,0,0,1.007,7.66s.385-1.644,1.024-3.525c.94,2.336,1.823,5.05,1.556,6.511A5.344,5.344,0,0,1,397.437-1212.57Z" transform="translate(-386.454 1249.831)" fill="#161615" opacity="0.2"/>
          </g>
        </g>
        <g id="Groupe_242" data-name="Groupe 242" transform="translate(186.604 309.471)" opacity="0.382">
          <g id="Groupe_241" data-name="Groupe 241">
            <path id="Tracé_126" data-name="Tracé 126" d="M399.567-1253.9c-1.124,4.84-1.67,9.025-1.67,9.025a129.806,129.806,0,0,1-4.412-18.8c-.891,1.009-10.535,19.809-10.535,19.809s-.191-2.181-.642-5.224c-2.094,3.321-3.688,6.54-3.875,8.86a13.355,13.355,0,0,0,12.239,14.387,13.356,13.356,0,0,0,14.387-12.238C405.357-1241.786,402.489-1248.321,399.567-1253.9Zm-8.887,27.949a5.342,5.342,0,0,1-4.895-5.755,9.218,9.218,0,0,1,1.551-3.543c.179,1.218.256,2.089.256,2.089s3.857-7.518,4.214-7.922a51.883,51.883,0,0,0,1.765,7.52s.218-1.674.668-3.609c1.169,2.232,2.316,4.845,2.2,6.326A5.342,5.342,0,0,1,390.679-1225.951Z" transform="translate(-378.388 1263.678)" fill="#161615" opacity="0.2"/>
          </g>
        </g>
        <g id="Groupe_244" data-name="Groupe 244" transform="translate(120.773 326.474)" opacity="0.442">
          <g id="Groupe_243" data-name="Groupe 243">
            <path id="Tracé_127" data-name="Tracé 127" d="M350.217-1238.766c-2.5,4.3-4.249,8.136-4.249,8.136a129.779,129.779,0,0,1,1.31-19.271c-1.149.7-15.891,15.838-15.891,15.838s.458-2.141.922-5.182c-2.978,2.558-5.448,5.167-6.308,7.329a13.355,13.355,0,0,0,7.469,17.349,13.357,13.357,0,0,0,17.349-7.47C352.191-1225.487,351.371-1232.575,350.217-1238.766Zm-16.708,24.1a5.342,5.342,0,0,1-2.988-6.939,9.192,9.192,0,0,1,2.524-2.931c-.186,1.217-.369,2.072-.369,2.072s5.9-6.054,6.355-6.334a51.92,51.92,0,0,0-.523,7.706s.7-1.535,1.7-3.253c.462,2.476.79,5.311.241,6.69A5.341,5.341,0,0,1,333.508-1214.664Z" transform="translate(-325.049 1249.901)" fill="#161615" opacity="0.2"/>
          </g>
        </g>
        <g id="Groupe_246" data-name="Groupe 246" transform="translate(26.534 484.342)" opacity="0.284">
          <g id="Groupe_245" data-name="Groupe 245">
            <path id="Tracé_128" data-name="Tracé 128" d="M270.109-1112.111c-1.2,4.821-1.817,9-1.817,9a129.963,129.963,0,0,1-4.106-18.875c-.908.995-10.855,19.636-10.855,19.636s-.157-2.183-.558-5.234c-2.147,3.287-3.794,6.479-4.018,8.8a13.357,13.357,0,0,0,12,14.585,13.357,13.357,0,0,0,14.583-12C275.7-1099.906,272.94-1106.485,270.109-1112.111Zm-9.339,27.8a5.344,5.344,0,0,1-4.8-5.834,9.215,9.215,0,0,1,1.608-3.517c.16,1.221.223,2.093.223,2.093s3.978-7.456,4.341-7.853a51.909,51.909,0,0,0,1.643,7.548s.246-1.67.727-3.6c1.132,2.25,2.236,4.881,2.093,6.36A5.342,5.342,0,0,1,260.77-1084.309Z" transform="translate(-248.692 1121.988)" fill="#161615" opacity="0.2"/>
          </g>
        </g>
        <g id="Groupe_248" data-name="Groupe 248" transform="translate(58.315 422.725)" opacity="0.195">
          <g id="Groupe_247" data-name="Groupe 247">
            <path id="Tracé_129" data-name="Tracé 129" d="M300.376-1160.607c-2.781,4.119-4.786,7.832-4.786,7.832a129.924,129.924,0,0,1,2.6-19.139c-1.194.624-16.922,14.734-16.922,14.734s.6-2.106,1.269-5.11c-3.143,2.354-5.782,4.789-6.787,6.889a13.358,13.358,0,0,0,6.286,17.813,13.359,13.359,0,0,0,17.813-6.286C301.453-1147.223,301.11-1154.352,300.376-1160.607Zm-18.293,22.924a5.342,5.342,0,0,1-2.514-7.124,9.217,9.217,0,0,1,2.715-2.755c-.267,1.2-.507,2.043-.507,2.043s6.291-5.643,6.768-5.893a51.878,51.878,0,0,0-1.042,7.654s.8-1.484,1.914-3.131c.294,2.5.432,5.351-.21,6.692A5.342,5.342,0,0,1,282.083-1137.683Z" transform="translate(-274.442 1171.914)" fill="#161615" opacity="0.2"/>
          </g>
        </g>
        <g id="Groupe_250" data-name="Groupe 250" transform="translate(49.621 403.912)" opacity="0.31">
          <g id="Groupe_249" data-name="Groupe 249">
            <path id="Tracé_130" data-name="Tracé 130" d="M294.2-1175.706c-3.114,3.873-5.423,7.406-5.423,7.406a129.886,129.886,0,0,1,4.189-18.857c-1.242.522-18.089,13.273-18.089,13.273s.774-2.048,1.69-4.985c-3.329,2.082-6.162,4.29-7.337,6.3a13.357,13.357,0,0,0,4.78,18.275,13.357,13.357,0,0,0,18.273-4.78C294.159-1162.281,294.412-1169.412,294.2-1175.706Zm-20.139,21.321a5.344,5.344,0,0,1-1.912-7.31,9.214,9.214,0,0,1,2.936-2.519c-.367,1.175-.676,1.995-.676,1.995s6.739-5.1,7.235-5.308a51.841,51.841,0,0,0-1.675,7.541s.923-1.413,2.168-2.962c.084,2.517-.016,5.37-.766,6.652A5.344,5.344,0,0,1,274.061-1154.386Z" transform="translate(-267.398 1187.157)" fill="#161615" opacity="0.2"/>
          </g>
        </g>
      </g>
    </g>
  </g>
</svg>
