<svg xmlns="http://www.w3.org/2000/svg" width="115.612" height="210.138" viewBox="0 0 115.612 210.138">
  <g id="logo" transform="translate(-1601 -241.9)">
    <g id="Groupe_393" data-name="Groupe 393" transform="translate(1602.299 325.047)">
      <path id="Tracé_155" data-name="Tracé 155" d="M1389.965,497.416l19.747,29.695a44.588,44.588,0,1,1-74.255,49.38l-25.165-37.842a44.627,44.627,0,0,1,8.118-58.549,42.741,42.741,0,0,1,4.1-3.119c.072-.053.142-.1.216-.149a44.642,44.642,0,0,1,47.506-1.174l-.886,4.4a23.475,23.475,0,0,1-5.518,11.06,28.14,28.14,0,0,0-34.3,1.136,27.654,27.654,0,0,0-3.2,3.089A28.142,28.142,0,0,0,1324,529.531l25.165,37.842A28.123,28.123,0,0,0,1396,536.227l-16.541-24.874A48.371,48.371,0,0,0,1389.965,497.416Z" transform="translate(-1302.845 -469.385)" fill="#e74e00"/>
    </g>
    <g id="Groupe_394" data-name="Groupe 394" transform="translate(1601 241.9)">
      <path id="Tracé_156" data-name="Tracé 156" d="M1398.759,435.875l-8.968,44.552c-.251,1.246-.552,2.472-.9,3.667a43.551,43.551,0,0,1-1.872,5.22,44.666,44.666,0,0,1-13.514,17.447q-1.336,1.04-2.745,1.979A44.539,44.539,0,0,1,1323.7,510.2a23.72,23.72,0,0,1,5.973-15.729,28.09,28.09,0,0,0,31.978.57,28.384,28.384,0,0,0,2.316-1.717,28.816,28.816,0,0,0,3.205-3.088,27.988,27.988,0,0,0,6.485-13.055l8.963-44.549a28.125,28.125,0,1,0-55.144-11.1l-8.961,44.553a28,28,0,0,0-.545,4.862,48.675,48.675,0,0,0-13.758,15.979,44.319,44.319,0,0,1-1.84-24.085l8.965-44.556a44.589,44.589,0,1,1,87.427,17.59Z" transform="translate(-1301.486 -382.478)" fill="#161615"/>
    </g>
  </g>
</svg>
