<svg xmlns="http://www.w3.org/2000/svg" width="24.697" height="43.246" viewBox="0 0 24.697 43.246">
  <g id="logo_footer" transform="translate(-1599.998 -240.888)">
    <g id="Groupe_393" data-name="Groupe 393" transform="translate(1601.257 258.209)">
      <path id="Tracé_155" data-name="Tracé 155" d="M1319.924,474.882l3.872,5.823a8.744,8.744,0,1,1-14.562,9.684l-4.935-7.421a8.752,8.752,0,0,1,1.592-11.482,8.371,8.371,0,0,1,.8-.612l.042-.029a8.755,8.755,0,0,1,9.316-.23l-.174.863a4.606,4.606,0,0,1-1.082,2.169,5.519,5.519,0,0,0-6.727.223,5.425,5.425,0,0,0-.627.606,5.518,5.518,0,0,0-.456,6.7l4.935,7.421a5.515,5.515,0,1,0,9.185-6.108l-3.244-4.878A9.485,9.485,0,0,0,1319.924,474.882Z" transform="translate(-1302.838 -469.385)" fill="none" stroke="#000" stroke-width="2"/>
    </g>
    <g id="Groupe_394" data-name="Groupe 394" transform="translate(1601.005 241.904)">
      <path id="Tracé_156" data-name="Tracé 156" d="M1320.566,392.953l-1.759,8.737c-.049.244-.108.485-.176.719a8.55,8.55,0,0,1-.367,1.024,8.76,8.76,0,0,1-2.65,3.421q-.262.2-.538.388a8.735,8.735,0,0,1-9.229.286,4.65,4.65,0,0,1,1.171-3.085,5.517,5.517,0,0,0,6.725-.225,5.661,5.661,0,0,0,.629-.606,5.49,5.49,0,0,0,1.272-2.56l1.758-8.736a5.516,5.516,0,0,0-10.814-2.177l-1.757,8.737a5.49,5.49,0,0,0-.107.953,9.544,9.544,0,0,0-2.7,3.134,8.691,8.691,0,0,1-.361-4.723l1.758-8.738a8.745,8.745,0,0,1,17.146,3.45Z" transform="translate(-1301.491 -382.482)" fill="none" stroke="#000" stroke-width="2"/>
    </g>
  </g>
</svg>
