<svg xmlns="http://www.w3.org/2000/svg" xmlns:xlink="http://www.w3.org/1999/xlink" width="280.751" height="660.2" viewBox="0 0 280.751 660.2">
  <defs>
    <radialGradient id="radial-gradient" cx="0.5" cy="0.5" r="1.647" gradientTransform="translate(0.39) scale(0.22 1)" gradientUnits="objectBoundingBox">
      <stop offset="0" stop-color="#fff" stop-opacity="0.2"/>
      <stop offset="1" stop-color="#fff" stop-opacity="0.2"/>
    </radialGradient>
  </defs>
  <g id="Groupe_391" data-name="Groupe 391" opacity="0.5">
    <g id="Groupe_304" data-name="Groupe 304" transform="translate(3.156 201.913)">
      <path id="Tracé_155" data-name="Tracé 155" d="M1514.4,537.455l47.954,72.109a108.275,108.275,0,1,1-180.319,119.912l-61.111-91.9A108.371,108.371,0,0,1,1340.641,495.4a103.753,103.753,0,0,1,9.964-7.574c.174-.128.344-.242.526-.362a108.407,108.407,0,0,1,115.363-2.851l-2.152,10.7a57.006,57.006,0,0,1-13.4,26.858,68.333,68.333,0,0,0-83.3,2.758,67.148,67.148,0,0,0-7.767,7.5,68.341,68.341,0,0,0-5.66,83.013l61.111,91.9A68.294,68.294,0,0,0,1529.064,631.7L1488.9,571.3A117.461,117.461,0,0,0,1514.4,537.455Z" transform="translate(-1302.845 -469.385)" fill="#e74e00"/>
    </g>
    <g id="Groupe_305" data-name="Groupe 305">
      <path id="Tracé_156" data-name="Tracé 156" d="M1537.7,512.145l-21.776,108.189c-.609,3.025-1.34,6-2.189,8.905a105.775,105.775,0,0,1-4.546,12.676,108.459,108.459,0,0,1-32.817,42.368q-3.244,2.527-6.666,4.807a108.157,108.157,0,0,1-114.285,3.538,57.6,57.6,0,0,1,14.5-38.2,68.214,68.214,0,0,0,77.653,1.385,68.894,68.894,0,0,0,5.625-4.17,69.963,69.963,0,0,0,7.783-7.5,67.963,67.963,0,0,0,15.748-31.7L1498.5,504.267a68.3,68.3,0,1,0-133.91-26.951l-21.76,108.191a67.969,67.969,0,0,0-1.324,11.807,118.2,118.2,0,0,0-33.41,38.8,107.623,107.623,0,0,1-4.468-58.488l21.77-108.2a108.279,108.279,0,1,1,212.3,42.715Z" transform="translate(-1301.486 -382.478)" fill="#161615"/>
    </g>
    <ellipse id="Ellipse_52" data-name="Ellipse 52" cx="140.375" cy="30.846" rx="140.375" ry="30.846" transform="translate(0 598.508)" fill="url(#radial-gradient)"/>
  </g>
</svg>
